<?xml version="1.0" encoding="UTF-8"?>
<svg width="484px" height="50px" viewBox="0 0 484 50" version="1.1" xmlns="http://www.w3.org/2000/svg" xmlns:xlink="http://www.w3.org/1999/xlink">
    <title>SolveIndustryChallenges|BeMoreProductiveExpediteYourTime-to-Market</title>
    <defs>
        <linearGradient x1="5.6378513e-16%" y1="50%" x2="100%" y2="50%" id="linearGradient-1">
            <stop stop-color="#F270AD" offset="0%"></stop>
            <stop stop-color="#E5A57D" offset="60.5977988%"></stop>
            <stop stop-color="#E1BE4B" offset="100%"></stop>
        </linearGradient>
        <path d="M56.30725,1952.184 C57.22725,1952.184 58.04375,1952.04408 58.75675,1951.76425 C59.46975,1951.48442 60.0735,1951.10108 60.568,1950.61425 C61.0625,1950.12742 61.4381667,1949.55625 61.695,1948.90075 C61.9518333,1948.24525 62.08025,1947.54183 62.08025,1946.7905 C62.08025,1946.1005 61.971,1945.514 61.7525,1945.031 C61.534,1944.548 61.2445833,1944.13975 60.88425,1943.80625 C60.5239167,1943.47275 60.11375,1943.19675 59.65375,1942.97825 C59.19375,1942.75975 58.72225,1942.56808 58.23925,1942.40325 C57.75625,1942.23842 57.28475,1942.08317 56.82475,1941.9375 C56.36475,1941.79183 55.9545833,1941.627 55.59425,1941.443 C55.2339167,1941.259 54.9445,1941.03667 54.726,1940.776 C54.5075,1940.51533 54.39825,1940.1895 54.39825,1939.7985 C54.39825,1939.49183 54.4519167,1939.21008 54.55925,1938.95325 C54.6665833,1938.69642 54.8295,1938.476 55.048,1938.292 C55.2665,1938.108 55.53675,1937.96425 55.85875,1937.86075 C56.18075,1937.75725 56.5564167,1937.7055 56.98575,1937.7055 C57.4610833,1937.7055 57.8731667,1937.76492 58.222,1937.88375 C58.5708333,1938.00258 58.8755833,1938.13483 59.13625,1938.2805 C59.3969167,1938.42617 59.6211667,1938.55842 59.809,1938.67725 C59.9968333,1938.79608 60.17125,1938.8555 60.33225,1938.8555 C60.4855833,1938.8555 60.614,1938.81908 60.7175,1938.74625 C60.821,1938.67342 60.91875,1938.5565 61.01075,1938.3955 L61.01075,1938.3955 L61.78125,1936.935 C61.1985833,1936.383 60.49325,1935.95367 59.66525,1935.647 C58.83725,1935.34033 57.9325833,1935.187 56.95125,1935.187 C56.07725,1935.187 55.3029167,1935.32117 54.62825,1935.5895 C53.9535833,1935.85783 53.38625,1936.21433 52.92625,1936.659 C52.46625,1937.10367 52.1155,1937.6135 51.874,1938.1885 C51.6325,1938.7635 51.51175,1939.35383 51.51175,1939.9595 C51.51175,1940.7185 51.621,1941.35675 51.8395,1941.87425 C52.058,1942.39175 52.3474167,1942.823 52.70775,1943.168 C53.0680833,1943.513 53.47825,1943.79283 53.93825,1944.0075 C54.39825,1944.22217 54.8659167,1944.40617 55.34125,1944.5595 C55.8165833,1944.71283 56.28425,1944.85467 56.74425,1944.985 C57.20425,1945.11533 57.6144167,1945.27442 57.97475,1945.46225 C58.3350833,1945.65008 58.6245,1945.882 58.843,1946.158 C59.0615,1946.434 59.17075,1946.7905 59.17075,1947.2275 C59.17075,1948.0095 58.92925,1948.60942 58.44625,1949.02725 C57.96325,1949.44508 57.2809167,1949.654 56.39925,1949.654 C55.82425,1949.654 55.3316667,1949.57542 54.9215,1949.41825 C54.5113333,1949.26108 54.1529167,1949.08667 53.84625,1948.895 C53.5395833,1948.70333 53.2750833,1948.52892 53.05275,1948.37175 C52.8304167,1948.21458 52.6234167,1948.136 52.43175,1948.136 C52.29375,1948.136 52.1634167,1948.17242 52.04075,1948.24525 C51.9180833,1948.31808 51.8184167,1948.40817 51.74175,1948.5155 L51.74175,1948.5155 L50.83325,1949.999 C51.15525,1950.32867 51.52325,1950.62767 51.93725,1950.896 C52.35125,1951.16433 52.794,1951.39433 53.2655,1951.586 C53.737,1951.77767 54.2295833,1951.92525 54.74325,1952.02875 C55.2569167,1952.13225 55.77825,1952.184 56.30725,1952.184 Z M69.51155,1952.1725 C70.38555,1952.1725 71.1809667,1952.03067 71.8978,1951.747 C72.6146333,1951.46333 73.2279667,1951.057 73.7378,1950.528 C74.2476333,1949.999 74.64055,1949.35883 74.91655,1948.6075 C75.19255,1947.85617 75.33055,1947.01283 75.33055,1946.0775 C75.33055,1945.14983 75.19255,1944.31033 74.91655,1943.559 C74.64055,1942.80767 74.2476333,1942.17133 73.7378,1941.65 C73.2279667,1941.12867 72.6146333,1940.72617 71.8978,1940.4425 C71.1809667,1940.15883 70.38555,1940.017 69.51155,1940.017 C68.6298833,1940.017 67.8287167,1940.15883 67.10805,1940.4425 C66.3873833,1940.72617 65.7721333,1941.12867 65.2623,1941.65 C64.7524667,1942.17133 64.3576333,1942.80767 64.0778,1943.559 C63.7979667,1944.31033 63.65805,1945.14983 63.65805,1946.0775 C63.65805,1947.01283 63.7979667,1947.85617 64.0778,1948.6075 C64.3576333,1949.35883 64.7524667,1949.999 65.2623,1950.528 C65.7721333,1951.057 66.3873833,1951.46333 67.10805,1951.747 C67.8287167,1952.03067 68.6298833,1952.1725 69.51155,1952.1725 Z M69.51155,1949.9875 C68.5148833,1949.9875 67.7769667,1949.65592 67.2978,1948.99275 C66.8186333,1948.32958 66.57905,1947.3655 66.57905,1946.1005 C66.57905,1944.8355 66.8186333,1943.86758 67.2978,1943.19675 C67.7769667,1942.52592 68.5148833,1942.1905 69.51155,1942.1905 C70.4928833,1942.1905 71.2193,1942.524 71.6908,1943.191 C72.1623,1943.858 72.39805,1944.82783 72.39805,1946.1005 C72.39805,1947.37317 72.1623,1948.33917 71.6908,1948.9985 C71.2193,1949.65783 70.4928833,1949.9875 69.51155,1949.9875 Z M80.38135,1952 L80.38135,1934.911 L77.54085,1934.911 L77.54085,1952 L80.38135,1952 Z M89.18115,1952 L93.86165,1940.201 L91.61915,1940.201 C91.4274833,1940.201 91.26265,1940.25083 91.12465,1940.3505 C90.98665,1940.45017 90.8908167,1940.57667 90.83715,1940.73 L90.83715,1940.73 L88.51415,1947.032 C88.3838167,1947.4 88.27265,1947.76033 88.18065,1948.113 C88.08865,1948.46567 88.0043167,1948.81833 87.92765,1949.171 C87.85865,1948.81833 87.77815,1948.46567 87.68615,1948.113 C87.59415,1947.76033 87.4868167,1947.4 87.36415,1947.032 L87.36415,1947.032 L85.08715,1940.73 C85.04115,1940.57667 84.9472333,1940.45017 84.8054,1940.3505 C84.6635667,1940.25083 84.4853167,1940.201 84.27065,1940.201 L84.27065,1940.201 L81.92465,1940.201 L86.60515,1952 L89.18115,1952 Z M100.16595,1952.1725 C100.57995,1952.1725 101.007367,1952.14183 101.4482,1952.0805 C101.889033,1952.01917 102.3222,1951.91375 102.7477,1951.76425 C103.1732,1951.61475 103.58145,1951.41542 103.97245,1951.16625 C104.36345,1950.91708 104.716117,1950.6085 105.03045,1950.2405 L105.03045,1950.2405 L104.21395,1949.2055 C104.09895,1949.02917 103.922617,1948.941 103.68495,1948.941 C103.508617,1948.941 103.326533,1948.99467 103.1387,1949.102 C102.950867,1949.20933 102.732367,1949.32817 102.4832,1949.4585 C102.234033,1949.58883 101.9427,1949.70767 101.6092,1949.815 C101.2757,1949.92233 100.87895,1949.976 100.41895,1949.976 C99.95895,1949.976 99.5392,1949.90508 99.1597,1949.76325 C98.7802,1949.62142 98.45245,1949.40675 98.17645,1949.11925 C97.90045,1948.83175 97.6781167,1948.46758 97.50945,1948.02675 C97.3407833,1947.58592 97.23345,1947.06267 97.18745,1946.457 L97.18745,1946.457 L104.48995,1946.457 C104.750617,1946.457 104.92695,1946.38225 105.01895,1946.23275 C105.11095,1946.08325 105.15695,1945.79383 105.15695,1945.3645 C105.15695,1944.5135 105.028533,1943.75642 104.7717,1943.09325 C104.514867,1942.43008 104.160283,1941.87042 103.70795,1941.41425 C103.255617,1940.95808 102.715117,1940.61117 102.08645,1940.3735 C101.457783,1940.13583 100.771617,1940.017 100.02795,1940.017 C99.1462833,1940.017 98.3547,1940.17033 97.6532,1940.477 C96.9517,1940.78367 96.3575333,1941.19958 95.8707,1941.72475 C95.3838667,1942.24992 95.0101167,1942.86708 94.74945,1943.57625 C94.4887833,1944.28542 94.35845,1945.0425 94.35845,1945.8475 C94.35845,1946.8825 94.50795,1947.79292 94.80695,1948.57875 C95.10595,1949.36458 95.5161167,1950.02392 96.03745,1950.55675 C96.5587833,1951.08958 97.1721167,1951.49208 97.87745,1951.76425 C98.5827833,1952.03642 99.3456167,1952.1725 100.16595,1952.1725 Z M102.60395,1944.7435 L97.24495,1944.7435 C97.3752833,1943.88483 97.6762,1943.22167 98.1477,1942.754 C98.6192,1942.28633 99.2651167,1942.0525 100.08545,1942.0525 C100.507117,1942.0525 100.877033,1942.12342 101.1952,1942.26525 C101.513367,1942.40708 101.77595,1942.60067 101.98295,1942.846 C102.18995,1943.09133 102.3452,1943.37692 102.4487,1943.70275 C102.5522,1944.02858 102.60395,1944.3755 102.60395,1944.7435 L102.60395,1944.7435 Z M116.43155,1952 L116.43155,1935.371 L113.32655,1935.371 L113.32655,1952 L116.43155,1952 Z M122.36785,1952 L122.36785,1943.467 C122.751183,1943.08367 123.157517,1942.78083 123.58685,1942.5585 C124.016183,1942.33617 124.476183,1942.225 124.96685,1942.225 C125.641517,1942.225 126.143683,1942.42242 126.47335,1942.81725 C126.803017,1943.21208 126.96785,1943.76983 126.96785,1944.4905 L126.96785,1944.4905 L126.96785,1952 L129.80835,1952 L129.80835,1944.4905 C129.80835,1943.83117 129.7221,1943.22742 129.5496,1942.67925 C129.3771,1942.13108 129.1241,1941.65958 128.7906,1941.26475 C128.4571,1940.86992 128.041183,1940.56325 127.54285,1940.34475 C127.044517,1940.12625 126.47335,1940.017 125.82935,1940.017 C125.430683,1940.017 125.062683,1940.05725 124.72535,1940.13775 C124.388017,1940.21825 124.071767,1940.32942 123.7766,1940.47125 C123.481433,1940.61308 123.2016,1940.78558 122.9371,1940.98875 C122.6726,1941.19192 122.421517,1941.41233 122.18385,1941.65 L122.18385,1941.65 L121.98835,1940.7185 C121.87335,1940.3735 121.63185,1940.201 121.26385,1940.201 L121.26385,1940.201 L119.52735,1940.201 L119.52735,1952 L122.36785,1952 Z M136.26215,1952.1725 C137.082483,1952.1725 137.801233,1952.00383 138.4184,1951.6665 C139.035567,1951.32917 139.581817,1950.88833 140.05715,1950.344 L140.05715,1950.344 L140.29865,1951.4825 C140.398317,1951.8275 140.635983,1952 141.01165,1952 L141.01165,1952 L142.74815,1952 L142.74815,1934.911 L139.90765,1934.911 L139.90765,1941.1325 C139.53965,1940.77983 139.121817,1940.5 138.65415,1940.293 C138.186483,1940.086 137.622983,1939.9825 136.96365,1939.9825 C136.189317,1939.9825 135.49165,1940.13775 134.87065,1940.44825 C134.24965,1940.75875 133.716817,1941.19 133.27215,1941.742 C132.827483,1942.294 132.486317,1942.94567 132.24865,1943.697 C132.010983,1944.44833 131.89215,1945.261 131.89215,1946.135 C131.89215,1947.101 131.997567,1947.95967 132.2084,1948.711 C132.419233,1949.46233 132.718233,1950.09292 133.1054,1950.60275 C133.492567,1951.11258 133.954483,1951.50167 134.49115,1951.77 C135.027817,1952.03833 135.61815,1952.1725 136.26215,1952.1725 Z M137.22815,1949.9185 C136.86015,1949.9185 136.52665,1949.85142 136.22765,1949.71725 C135.92865,1949.58308 135.67565,1949.36458 135.46865,1949.06175 C135.26165,1948.75892 135.102567,1948.36792 134.9914,1947.88875 C134.880233,1947.40958 134.82465,1946.825 134.82465,1946.135 C134.82465,1945.45267 134.889817,1944.86042 135.02015,1944.35825 C135.150483,1943.85608 135.338317,1943.44208 135.58365,1943.11625 C135.828983,1942.79042 136.12415,1942.547 136.46915,1942.386 C136.81415,1942.225 137.201317,1942.1445 137.63065,1942.1445 C138.06765,1942.1445 138.4759,1942.225 138.8554,1942.386 C139.2349,1942.547 139.58565,1942.823 139.90765,1943.214 L139.90765,1943.214 L139.90765,1948.504 C139.53965,1948.95633 139.14865,1949.30517 138.73465,1949.5505 C138.32065,1949.79583 137.818483,1949.9185 137.22815,1949.9185 Z M149.42045,1952.184 C150.210117,1952.184 150.896283,1952.03258 151.47895,1951.72975 C152.061617,1951.42692 152.59445,1951.03017 153.07745,1950.5395 L153.07745,1950.5395 L153.27295,1951.4825 C153.372617,1951.8275 153.610283,1952 153.98595,1952 L153.98595,1952 L155.72245,1952 L155.72245,1940.201 L152.88195,1940.201 L152.88195,1948.734 C152.498617,1949.11733 152.092283,1949.41825 151.66295,1949.63675 C151.233617,1949.85525 150.773617,1949.9645 150.28295,1949.9645 C149.61595,1949.9645 149.1157,1949.76708 148.7822,1949.37225 C148.4487,1948.97742 148.28195,1948.41967 148.28195,1947.699 L148.28195,1947.699 L148.28195,1940.201 L145.44145,1940.201 L145.44145,1947.699 C145.44145,1948.35833 145.5277,1948.96208 145.7002,1949.51025 C145.8727,1950.05842 146.127617,1950.53183 146.46495,1950.9305 C146.802283,1951.32917 147.2182,1951.63775 147.7127,1951.85625 C148.2072,1952.07475 148.77645,1952.184 149.42045,1952.184 Z M161.78525,1952.184 C162.551917,1952.184 163.2285,1952.08625 163.815,1951.89075 C164.4015,1951.69525 164.894083,1951.42308 165.29275,1951.07425 C165.691417,1950.72542 165.992333,1950.31142 166.1955,1949.83225 C166.398667,1949.35308 166.50025,1948.82983 166.50025,1948.2625 C166.50025,1947.78717 166.417833,1947.38083 166.253,1947.0435 C166.088167,1946.70617 165.869667,1946.41675 165.5975,1946.17525 C165.325333,1945.93375 165.01675,1945.73442 164.67175,1945.57725 C164.32675,1945.42008 163.976,1945.28017 163.6195,1945.1575 C163.263,1945.03483 162.91225,1944.92175 162.56725,1944.81825 C162.22225,1944.71475 161.913667,1944.59783 161.6415,1944.4675 C161.369333,1944.33717 161.150833,1944.18575 160.986,1944.01325 C160.821167,1943.84075 160.73875,1943.628 160.73875,1943.375 C160.73875,1942.99167 160.897833,1942.68117 161.216,1942.4435 C161.534167,1942.20583 161.973083,1942.087 162.53275,1942.087 C162.893083,1942.087 163.2055,1942.12533 163.47,1942.202 C163.7345,1942.27867 163.97025,1942.36492 164.17725,1942.46075 C164.38425,1942.55658 164.566333,1942.64283 164.7235,1942.7195 C164.880667,1942.79617 165.02825,1942.8345 165.16625,1942.8345 C165.296583,1942.8345 165.403917,1942.80958 165.48825,1942.75975 C165.572583,1942.70992 165.653083,1942.62367 165.72975,1942.501 L165.72975,1942.501 L166.37375,1941.4775 C165.929083,1941.0405 165.37325,1940.68783 164.70625,1940.4195 C164.03925,1940.15117 163.299417,1940.017 162.48675,1940.017 C161.758417,1940.017 161.116333,1940.11475 160.5605,1940.31025 C160.004667,1940.50575 159.540833,1940.76642 159.169,1941.09225 C158.797167,1941.41808 158.515417,1941.7995 158.32375,1942.2365 C158.132083,1942.6735 158.03625,1943.1335 158.03625,1943.6165 C158.03625,1944.13783 158.118667,1944.5825 158.2835,1944.9505 C158.448333,1945.3185 158.666833,1945.629 158.939,1945.882 C159.211167,1946.135 159.521667,1946.34392 159.8705,1946.50875 C160.219333,1946.67358 160.575833,1946.81733 160.94,1946.94 C161.304167,1947.06267 161.660667,1947.17575 162.0095,1947.27925 C162.358333,1947.38275 162.668833,1947.49967 162.941,1947.63 C163.213167,1947.76033 163.431667,1947.91367 163.5965,1948.09 C163.761333,1948.26633 163.84375,1948.4925 163.84375,1948.7685 C163.84375,1948.9525 163.807333,1949.13075 163.7345,1949.30325 C163.661667,1949.47575 163.546667,1949.62717 163.3895,1949.7575 C163.232333,1949.88783 163.033,1949.99325 162.7915,1950.07375 C162.55,1950.15425 162.260583,1950.1945 161.92325,1950.1945 C161.493917,1950.1945 161.139333,1950.14467 160.8595,1950.045 C160.579667,1949.94533 160.33625,1949.838 160.12925,1949.723 C159.92225,1949.608 159.740167,1949.50067 159.583,1949.401 C159.425833,1949.30133 159.259083,1949.2515 159.08275,1949.2515 C158.906417,1949.2515 158.76075,1949.286 158.64575,1949.355 C158.53075,1949.424 158.431083,1949.52367 158.34675,1949.654 L158.34675,1949.654 L157.69125,1950.735 C157.92125,1950.942 158.187667,1951.13367 158.4905,1951.31 C158.793333,1951.48633 159.123,1951.63967 159.4795,1951.77 C159.836,1951.90033 160.207833,1952.00192 160.595,1952.07475 C160.982167,1952.14758 161.378917,1952.184 161.78525,1952.184 Z M172.57455,1952.184 C173.14955,1952.184 173.705383,1952.09583 174.24205,1951.9195 C174.778717,1951.74317 175.25405,1951.4825 175.66805,1951.1375 L175.66805,1951.1375 L174.81705,1949.7575 C174.755717,1949.67317 174.698217,1949.60992 174.64455,1949.56775 C174.590883,1949.52558 174.521883,1949.5045 174.43755,1949.5045 C174.36855,1949.5045 174.29955,1949.52558 174.23055,1949.56775 C174.16155,1949.60992 174.082967,1949.654 173.9948,1949.7 C173.906633,1949.746 173.803133,1949.79008 173.6843,1949.83225 C173.565467,1949.87442 173.417883,1949.8955 173.24155,1949.8955 C172.927217,1949.8955 172.679967,1949.792 172.4998,1949.585 C172.319633,1949.378 172.22955,1949.0905 172.22955,1948.7225 L172.22955,1948.7225 L172.22955,1942.3285 L175.38055,1942.3285 L175.38055,1940.3045 L172.22955,1940.3045 L172.22955,1936.59 L170.75755,1936.59 C170.588883,1936.59 170.450883,1936.63217 170.34355,1936.7165 C170.236217,1936.80083 170.163383,1936.91967 170.12505,1937.073 L170.12505,1937.073 L169.52705,1940.293 L167.62955,1940.6035 L167.62955,1941.7305 C167.62955,1941.92983 167.683217,1942.07933 167.79055,1942.179 C167.897883,1942.27867 168.028217,1942.3285 168.18155,1942.3285 L168.18155,1942.3285 L169.38905,1942.3285 L169.38905,1948.918 C169.38905,1949.93767 169.663133,1950.73692 170.2113,1951.31575 C170.759467,1951.89458 171.547217,1952.184 172.57455,1952.184 Z M180.04035,1952 L180.04035,1944.732 C180.170683,1944.41767 180.3106,1944.13783 180.4601,1943.8925 C180.6096,1943.64717 180.7821,1943.43825 180.9776,1943.26575 C181.1731,1943.09325 181.393517,1942.961 181.63885,1942.869 C181.884183,1942.777 182.164017,1942.731 182.47835,1942.731 C182.693017,1942.731 182.913433,1942.75017 183.1396,1942.7885 C183.365767,1942.82683 183.53635,1942.846 183.65135,1942.846 C183.774017,1942.846 183.871767,1942.81725 183.9446,1942.75975 C184.017433,1942.70225 184.073017,1942.6045 184.11135,1942.4665 L184.11135,1942.4665 L184.29535,1940.339 C183.965683,1940.10133 183.528683,1939.9825 182.98435,1939.9825 C182.29435,1939.9825 181.69635,1940.18375 181.19035,1940.58625 C180.68435,1940.98875 180.24735,1941.54267 179.87935,1942.248 L179.87935,1942.248 L179.70685,1940.914 C179.668517,1940.64567 179.59185,1940.45975 179.47685,1940.35625 C179.36185,1940.25275 179.158683,1940.201 178.86735,1940.201 L178.86735,1940.201 L177.19985,1940.201 L177.19985,1952 L180.04035,1952 Z M189.12765,1955.8525 C189.40365,1955.8525 189.608733,1955.80075 189.7429,1955.69725 C189.877067,1955.59375 189.986317,1955.44233 190.07065,1955.243 L190.07065,1955.243 L196.49915,1940.201 L194.22215,1940.201 C194.045817,1940.201 193.886733,1940.25083 193.7449,1940.3505 C193.603067,1940.45017 193.501483,1940.57667 193.44015,1940.73 L193.44015,1940.73 L191.07115,1946.8365 C190.986817,1947.0435 190.91015,1947.25242 190.84115,1947.46325 C190.77215,1947.67408 190.70315,1947.88683 190.63415,1948.1015 C190.580483,1947.88683 190.5249,1947.676 190.4674,1947.469 C190.4099,1947.262 190.338983,1947.055 190.25465,1946.848 L190.25465,1946.848 L187.74765,1940.73 C187.686317,1940.592 187.5924,1940.46933 187.4659,1940.362 C187.3394,1940.25467 187.164983,1940.201 186.94265,1940.201 L186.94265,1940.201 L184.44715,1940.201 L189.21965,1951.1145 L187.01165,1955.8525 L189.12765,1955.8525 Z M210.43025,1952.184 C211.81025,1952.184 212.992833,1951.96167 213.978,1951.517 C214.963167,1951.07233 215.793083,1950.43217 216.46775,1949.5965 L216.46775,1949.5965 L215.24875,1948.274 C215.118417,1948.14367 214.968917,1948.0785 214.80025,1948.0785 C214.70825,1948.0785 214.620083,1948.09958 214.53575,1948.14175 C214.451417,1948.18392 214.370917,1948.2395 214.29425,1948.3085 C214.04125,1948.5385 213.786333,1948.73208 213.5295,1948.88925 C213.272667,1949.04642 213.0005,1949.17483 212.713,1949.2745 C212.4255,1949.37417 212.111167,1949.447 211.77,1949.493 C211.428833,1949.539 211.047417,1949.562 210.62575,1949.562 C209.920417,1949.562 209.261083,1949.42975 208.64775,1949.16525 C208.034417,1948.90075 207.501583,1948.51933 207.04925,1948.021 C206.596917,1947.52267 206.2385,1946.90933 205.974,1946.181 C205.7095,1945.45267 205.57725,1944.62083 205.57725,1943.6855 C205.57725,1942.75783 205.699917,1941.93175 205.94525,1941.20725 C206.190583,1940.48275 206.535583,1939.86942 206.98025,1939.36725 C207.424917,1938.86508 207.955833,1938.48175 208.573,1938.21725 C209.190167,1937.95275 209.870583,1937.8205 210.61425,1937.8205 C211.05125,1937.8205 211.4365,1937.85308 211.77,1937.91825 C212.1035,1937.98342 212.39675,1938.06392 212.64975,1938.15975 C212.90275,1938.25558 213.125083,1938.361 213.31675,1938.476 C213.508417,1938.591 213.677083,1938.69642 213.82275,1938.79225 C213.968417,1938.88808 214.102583,1938.96858 214.22525,1939.03375 C214.347917,1939.09892 214.46675,1939.1315 214.58175,1939.1315 C214.750417,1939.1315 214.882667,1939.097 214.9785,1939.028 C215.074333,1938.959 215.152917,1938.8785 215.21425,1938.7865 L215.21425,1938.7865 L216.24925,1937.349 C215.589917,1936.705 214.790667,1936.18367 213.8515,1935.785 C212.912333,1935.38633 211.837083,1935.187 210.62575,1935.187 C209.40675,1935.187 208.295083,1935.39592 207.29075,1935.81375 C206.286417,1936.23158 205.422,1936.81617 204.6975,1937.5675 C203.973,1938.31883 203.411417,1939.21392 203.01275,1940.25275 C202.614083,1941.29158 202.41475,1942.43583 202.41475,1943.6855 C202.41475,1944.91983 202.600667,1946.05833 202.9725,1947.101 C203.344333,1948.14367 203.879083,1949.04067 204.57675,1949.792 C205.274417,1950.54333 206.115833,1951.12983 207.101,1951.5515 C208.086167,1951.97317 209.195917,1952.184 210.43025,1952.184 Z M220.98955,1952 L220.98955,1943.467 C221.372883,1943.08367 221.779217,1942.78083 222.20855,1942.5585 C222.637883,1942.33617 223.097883,1942.225 223.58855,1942.225 C224.263217,1942.225 224.765383,1942.42242 225.09505,1942.81725 C225.424717,1943.21208 225.58955,1943.76983 225.58955,1944.4905 L225.58955,1944.4905 L225.58955,1952 L228.43005,1952 L228.43005,1944.4905 C228.43005,1943.83117 228.3438,1943.22742 228.1713,1942.67925 C227.9988,1942.13108 227.7458,1941.65958 227.4123,1941.26475 C227.0788,1940.86992 226.662883,1940.56325 226.16455,1940.34475 C225.666217,1940.12625 225.09505,1940.017 224.45105,1940.017 C223.707383,1940.017 223.05955,1940.15117 222.50755,1940.4195 C221.95555,1940.68783 221.44955,1941.03667 220.98955,1941.466 L220.98955,1941.466 L220.98955,1934.911 L218.14905,1934.911 L218.14905,1952 L220.98955,1952 Z M233.72235,1952.184 C234.144017,1952.184 234.529267,1952.14758 234.8781,1952.07475 C235.226933,1952.00192 235.554683,1951.8965 235.86135,1951.7585 C236.168017,1951.6205 236.463183,1951.44992 236.74685,1951.24675 C237.030517,1951.04358 237.32185,1950.80783 237.62085,1950.5395 L237.62085,1950.5395 L237.87385,1951.3905 C237.958183,1951.63583 238.073183,1951.79875 238.21885,1951.87925 C238.364517,1951.95975 238.571517,1952 238.83985,1952 L238.83985,1952 L240.12785,1952 L240.12785,1944.548 C240.12785,1943.881 240.0301,1943.26767 239.8346,1942.708 C239.6391,1942.14833 239.353517,1941.66725 238.97785,1941.26475 C238.602183,1940.86225 238.142183,1940.54792 237.59785,1940.32175 C237.053517,1940.09558 236.43635,1939.9825 235.74635,1939.9825 C233.83735,1939.9825 232.20435,1940.6035 230.84735,1941.8455 L230.84735,1941.8455 L231.35335,1942.754 C231.437683,1942.892 231.54885,1943.01275 231.68685,1943.11625 C231.82485,1943.21975 231.993517,1943.2715 232.19285,1943.2715 C232.42285,1943.2715 232.631767,1943.21783 232.8196,1943.1105 C233.007433,1943.00317 233.21635,1942.88242 233.44635,1942.74825 C233.67635,1942.61408 233.942767,1942.49333 234.2456,1942.386 C234.548433,1942.27867 234.92985,1942.225 235.38985,1942.225 C236.026183,1942.225 236.513017,1942.41475 236.85035,1942.79425 C237.187683,1943.17375 237.35635,1943.75833 237.35635,1944.548 L237.35635,1944.548 L237.35635,1945.238 C236.45935,1945.261 235.662017,1945.32808 234.96435,1945.43925 C234.266683,1945.55042 233.655267,1945.69417 233.1301,1945.8705 C232.604933,1946.04683 232.162183,1946.25383 231.80185,1946.4915 C231.441517,1946.72917 231.148267,1946.98217 230.9221,1947.2505 C230.695933,1947.51883 230.533017,1947.80058 230.43335,1948.09575 C230.333683,1948.39092 230.28385,1948.688 230.28385,1948.987 C230.28385,1949.516 230.368183,1949.97983 230.53685,1950.3785 C230.705517,1950.77717 230.943183,1951.11067 231.24985,1951.379 C231.556517,1951.64733 231.920683,1951.84858 232.34235,1951.98275 C232.764017,1952.11692 233.224017,1952.184 233.72235,1952.184 Z M234.59635,1950.229 C234.121017,1950.229 233.735767,1950.12167 233.4406,1949.907 C233.145433,1949.69233 232.99785,1949.33583 232.99785,1948.8375 C232.99785,1948.5845 233.070683,1948.35067 233.21635,1948.136 C233.362017,1947.92133 233.603517,1947.7335 233.94085,1947.5725 C234.278183,1947.4115 234.726683,1947.27925 235.28635,1947.17575 C235.846017,1947.07225 236.536017,1947.00133 237.35635,1946.963 L237.35635,1946.963 L237.35635,1948.9525 C236.950017,1949.38183 236.5341,1949.70192 236.1086,1949.91275 C235.6831,1950.12358 235.179017,1950.229 234.59635,1950.229 Z M245.67315,1952 L245.67315,1934.911 L242.83265,1934.911 L242.83265,1952 L245.67315,1952 Z M251.39095,1952 L251.39095,1934.911 L248.55045,1934.911 L248.55045,1952 L251.39095,1952 Z M259.39725,1952.1725 C259.81125,1952.1725 260.238667,1952.14183 260.6795,1952.0805 C261.120333,1952.01917 261.5535,1951.91375 261.979,1951.76425 C262.4045,1951.61475 262.81275,1951.41542 263.20375,1951.16625 C263.59475,1950.91708 263.947417,1950.6085 264.26175,1950.2405 L264.26175,1950.2405 L263.44525,1949.2055 C263.33025,1949.02917 263.153917,1948.941 262.91625,1948.941 C262.739917,1948.941 262.557833,1948.99467 262.37,1949.102 C262.182167,1949.20933 261.963667,1949.32817 261.7145,1949.4585 C261.465333,1949.58883 261.174,1949.70767 260.8405,1949.815 C260.507,1949.92233 260.11025,1949.976 259.65025,1949.976 C259.19025,1949.976 258.7705,1949.90508 258.391,1949.76325 C258.0115,1949.62142 257.68375,1949.40675 257.40775,1949.11925 C257.13175,1948.83175 256.909417,1948.46758 256.74075,1948.02675 C256.572083,1947.58592 256.46475,1947.06267 256.41875,1946.457 L256.41875,1946.457 L263.72125,1946.457 C263.981917,1946.457 264.15825,1946.38225 264.25025,1946.23275 C264.34225,1946.08325 264.38825,1945.79383 264.38825,1945.3645 C264.38825,1944.5135 264.259833,1943.75642 264.003,1943.09325 C263.746167,1942.43008 263.391583,1941.87042 262.93925,1941.41425 C262.486917,1940.95808 261.946417,1940.61117 261.31775,1940.3735 C260.689083,1940.13583 260.002917,1940.017 259.25925,1940.017 C258.377583,1940.017 257.586,1940.17033 256.8845,1940.477 C256.183,1940.78367 255.588833,1941.19958 255.102,1941.72475 C254.615167,1942.24992 254.241417,1942.86708 253.98075,1943.57625 C253.720083,1944.28542 253.58975,1945.0425 253.58975,1945.8475 C253.58975,1946.8825 253.73925,1947.79292 254.03825,1948.57875 C254.33725,1949.36458 254.747417,1950.02392 255.26875,1950.55675 C255.790083,1951.08958 256.403417,1951.49208 257.10875,1951.76425 C257.814083,1952.03642 258.576917,1952.1725 259.39725,1952.1725 Z M261.83525,1944.7435 L256.47625,1944.7435 C256.606583,1943.88483 256.9075,1943.22167 257.379,1942.754 C257.8505,1942.28633 258.496417,1942.0525 259.31675,1942.0525 C259.738417,1942.0525 260.108333,1942.12342 260.4265,1942.26525 C260.744667,1942.40708 261.00725,1942.60067 261.21425,1942.846 C261.42125,1943.09133 261.5765,1943.37692 261.68,1943.70275 C261.7835,1944.02858 261.83525,1944.3755 261.83525,1944.7435 L261.83525,1944.7435 Z M269.35855,1952 L269.35855,1943.467 C269.741883,1943.08367 270.148217,1942.78083 270.57755,1942.5585 C271.006883,1942.33617 271.466883,1942.225 271.95755,1942.225 C272.632217,1942.225 273.134383,1942.42242 273.46405,1942.81725 C273.793717,1943.21208 273.95855,1943.76983 273.95855,1944.4905 L273.95855,1944.4905 L273.95855,1952 L276.79905,1952 L276.79905,1944.4905 C276.79905,1943.83117 276.7128,1943.22742 276.5403,1942.67925 C276.3678,1942.13108 276.1148,1941.65958 275.7813,1941.26475 C275.4478,1940.86992 275.031883,1940.56325 274.53355,1940.34475 C274.035217,1940.12625 273.46405,1940.017 272.82005,1940.017 C272.421383,1940.017 272.053383,1940.05725 271.71605,1940.13775 C271.378717,1940.21825 271.062467,1940.32942 270.7673,1940.47125 C270.472133,1940.61308 270.1923,1940.78558 269.9278,1940.98875 C269.6633,1941.19192 269.412217,1941.41233 269.17455,1941.65 L269.17455,1941.65 L268.97905,1940.7185 C268.86405,1940.3735 268.62255,1940.201 268.25455,1940.201 L268.25455,1940.201 L266.51805,1940.201 L266.51805,1952 L269.35855,1952 Z M283.91985,1956.1515 C284.824517,1956.1515 285.631433,1956.03458 286.3406,1955.80075 C287.049767,1955.56692 287.647767,1955.25833 288.1346,1954.875 C288.621433,1954.49167 288.993267,1954.05467 289.2501,1953.564 C289.506933,1953.07333 289.63535,1952.56733 289.63535,1952.046 C289.63535,1951.48633 289.5261,1951.02825 289.3076,1950.67175 C289.0891,1950.31525 288.799683,1950.0335 288.43935,1949.8265 C288.079017,1949.6195 287.66885,1949.46808 287.20885,1949.37225 C286.74885,1949.27642 286.27735,1949.20933 285.79435,1949.171 C285.31135,1949.13267 284.83985,1949.10775 284.37985,1949.09625 C283.91985,1949.08475 283.509683,1949.056 283.14935,1949.01 C282.789017,1948.964 282.4996,1948.88542 282.2811,1948.77425 C282.0626,1948.66308 281.95335,1948.48867 281.95335,1948.251 C281.95335,1947.975 282.13735,1947.72583 282.50535,1947.5035 C282.71235,1947.54183 282.923183,1947.5725 283.13785,1947.5955 C283.352517,1947.6185 283.57485,1947.63 283.80485,1947.63 C284.456517,1947.63 285.0641,1947.53992 285.6276,1947.35975 C286.1911,1947.17958 286.67985,1946.92467 287.09385,1946.595 C287.50785,1946.26533 287.831767,1945.86475 288.0656,1945.39325 C288.299433,1944.92175 288.41635,1944.39467 288.41635,1943.812 C288.41635,1943.329 288.33585,1942.88433 288.17485,1942.478 L288.17485,1942.478 L289.23285,1942.2825 C289.639183,1942.20583 289.84235,1941.99883 289.84235,1941.6615 L289.84235,1941.6615 L289.84235,1940.6035 L286.44985,1940.6035 C286.08185,1940.40417 285.675517,1940.25275 285.23085,1940.14925 C284.786183,1940.04575 284.31085,1939.994 283.80485,1939.994 C283.130183,1939.994 282.507267,1940.08217 281.9361,1940.2585 C281.364933,1940.43483 280.870433,1940.68975 280.4526,1941.02325 C280.034767,1941.35675 279.708933,1941.75925 279.4751,1942.23075 C279.241267,1942.70225 279.12435,1943.22933 279.12435,1943.812 C279.12435,1944.53267 279.294933,1945.16133 279.6361,1945.698 C279.977267,1946.23467 280.44685,1946.664 281.04485,1946.986 C280.784183,1947.11633 280.558017,1947.26392 280.36635,1947.42875 C280.174683,1947.59358 280.0156,1947.768 279.8891,1947.952 C279.7626,1948.136 279.666767,1948.32192 279.6016,1948.50975 C279.536433,1948.69758 279.50385,1948.87967 279.50385,1949.056 C279.50385,1949.493 279.59585,1949.84567 279.77985,1950.114 C279.96385,1950.38233 280.213017,1950.597 280.52735,1950.758 C279.944683,1950.98033 279.4866,1951.27742 279.1531,1951.64925 C278.8196,1952.02108 278.65285,1952.483 278.65285,1953.035 C278.65285,1953.44133 278.760183,1953.83233 278.97485,1954.208 C279.189517,1954.58367 279.51535,1954.91525 279.95235,1955.20275 C280.38935,1955.49025 280.937517,1955.72025 281.59685,1955.89275 C282.256183,1956.06525 283.030517,1956.1515 283.91985,1956.1515 Z M283.80485,1945.813 C283.45985,1945.813 283.1551,1945.76508 282.8906,1945.66925 C282.6261,1945.57342 282.4076,1945.43925 282.2351,1945.26675 C282.0626,1945.09425 281.932267,1944.88917 281.8441,1944.6515 C281.755933,1944.41383 281.71185,1944.157 281.71185,1943.881 C281.71185,1943.29833 281.886267,1942.83642 282.2351,1942.49525 C282.583933,1942.15408 283.107183,1941.9835 283.80485,1941.9835 C284.502517,1941.9835 285.025767,1942.15408 285.3746,1942.49525 C285.723433,1942.83642 285.89785,1943.29833 285.89785,1943.881 C285.89785,1944.16467 285.853767,1944.42533 285.7656,1944.663 C285.677433,1944.90067 285.5471,1945.10383 285.3746,1945.2725 C285.2021,1945.44117 284.985517,1945.57342 284.72485,1945.66925 C284.464183,1945.76508 284.157517,1945.813 283.80485,1945.813 Z M283.97735,1954.1275 C283.456017,1954.1275 283.015183,1954.09108 282.65485,1954.01825 C282.294517,1953.94542 282.001267,1953.84383 281.7751,1953.7135 C281.548933,1953.58317 281.3841,1953.42792 281.2806,1953.24775 C281.1771,1953.06758 281.12535,1952.874 281.12535,1952.667 C281.12535,1952.35267 281.2231,1952.07667 281.4186,1951.839 C281.6141,1951.60133 281.869017,1951.39433 282.18335,1951.218 C282.543683,1951.264 282.9136,1951.29467 283.2931,1951.31 C283.6726,1951.32533 284.0406,1951.34258 284.3971,1951.36175 C284.7536,1951.38092 285.090933,1951.40967 285.4091,1951.448 C285.727267,1951.48633 286.005183,1951.54575 286.24285,1951.62625 C286.480517,1951.70675 286.66835,1951.81983 286.80635,1951.9655 C286.94435,1952.11117 287.01335,1952.299 287.01335,1952.529 C287.01335,1952.759 286.95585,1952.97175 286.84085,1953.16725 C286.72585,1953.36275 286.543767,1953.53142 286.2946,1953.67325 C286.045433,1953.81508 285.729183,1953.92625 285.34585,1954.00675 C284.962517,1954.08725 284.50635,1954.1275 283.97735,1954.1275 Z M296.59515,1952.1725 C297.00915,1952.1725 297.436567,1952.14183 297.8774,1952.0805 C298.318233,1952.01917 298.7514,1951.91375 299.1769,1951.76425 C299.6024,1951.61475 300.01065,1951.41542 300.40165,1951.16625 C300.79265,1950.91708 301.145317,1950.6085 301.45965,1950.2405 L301.45965,1950.2405 L300.64315,1949.2055 C300.52815,1949.02917 300.351817,1948.941 300.11415,1948.941 C299.937817,1948.941 299.755733,1948.99467 299.5679,1949.102 C299.380067,1949.20933 299.161567,1949.32817 298.9124,1949.4585 C298.663233,1949.58883 298.3719,1949.70767 298.0384,1949.815 C297.7049,1949.92233 297.30815,1949.976 296.84815,1949.976 C296.38815,1949.976 295.9684,1949.90508 295.5889,1949.76325 C295.2094,1949.62142 294.88165,1949.40675 294.60565,1949.11925 C294.32965,1948.83175 294.107317,1948.46758 293.93865,1948.02675 C293.769983,1947.58592 293.66265,1947.06267 293.61665,1946.457 L293.61665,1946.457 L300.91915,1946.457 C301.179817,1946.457 301.35615,1946.38225 301.44815,1946.23275 C301.54015,1946.08325 301.58615,1945.79383 301.58615,1945.3645 C301.58615,1944.5135 301.457733,1943.75642 301.2009,1943.09325 C300.944067,1942.43008 300.589483,1941.87042 300.13715,1941.41425 C299.684817,1940.95808 299.144317,1940.61117 298.51565,1940.3735 C297.886983,1940.13583 297.200817,1940.017 296.45715,1940.017 C295.575483,1940.017 294.7839,1940.17033 294.0824,1940.477 C293.3809,1940.78367 292.786733,1941.19958 292.2999,1941.72475 C291.813067,1942.24992 291.439317,1942.86708 291.17865,1943.57625 C290.917983,1944.28542 290.78765,1945.0425 290.78765,1945.8475 C290.78765,1946.8825 290.93715,1947.79292 291.23615,1948.57875 C291.53515,1949.36458 291.945317,1950.02392 292.46665,1950.55675 C292.987983,1951.08958 293.601317,1951.49208 294.30665,1951.76425 C295.011983,1952.03642 295.774817,1952.1725 296.59515,1952.1725 Z M299.03315,1944.7435 L293.67415,1944.7435 C293.804483,1943.88483 294.1054,1943.22167 294.5769,1942.754 C295.0484,1942.28633 295.694317,1942.0525 296.51465,1942.0525 C296.936317,1942.0525 297.306233,1942.12342 297.6244,1942.26525 C297.942567,1942.40708 298.20515,1942.60067 298.41215,1942.846 C298.61915,1943.09133 298.7744,1943.37692 298.8779,1943.70275 C298.9814,1944.02858 299.03315,1944.3755 299.03315,1944.7435 L299.03315,1944.7435 Z M306.97045,1952.184 C307.737117,1952.184 308.4137,1952.08625 309.0002,1951.89075 C309.5867,1951.69525 310.079283,1951.42308 310.47795,1951.07425 C310.876617,1950.72542 311.177533,1950.31142 311.3807,1949.83225 C311.583867,1949.35308 311.68545,1948.82983 311.68545,1948.2625 C311.68545,1947.78717 311.603033,1947.38083 311.4382,1947.0435 C311.273367,1946.70617 311.054867,1946.41675 310.7827,1946.17525 C310.510533,1945.93375 310.20195,1945.73442 309.85695,1945.57725 C309.51195,1945.42008 309.1612,1945.28017 308.8047,1945.1575 C308.4482,1945.03483 308.09745,1944.92175 307.75245,1944.81825 C307.40745,1944.71475 307.098867,1944.59783 306.8267,1944.4675 C306.554533,1944.33717 306.336033,1944.18575 306.1712,1944.01325 C306.006367,1943.84075 305.92395,1943.628 305.92395,1943.375 C305.92395,1942.99167 306.083033,1942.68117 306.4012,1942.4435 C306.719367,1942.20583 307.158283,1942.087 307.71795,1942.087 C308.078283,1942.087 308.3907,1942.12533 308.6552,1942.202 C308.9197,1942.27867 309.15545,1942.36492 309.36245,1942.46075 C309.56945,1942.55658 309.751533,1942.64283 309.9087,1942.7195 C310.065867,1942.79617 310.21345,1942.8345 310.35145,1942.8345 C310.481783,1942.8345 310.589117,1942.80958 310.67345,1942.75975 C310.757783,1942.70992 310.838283,1942.62367 310.91495,1942.501 L310.91495,1942.501 L311.55895,1941.4775 C311.114283,1941.0405 310.55845,1940.68783 309.89145,1940.4195 C309.22445,1940.15117 308.484617,1940.017 307.67195,1940.017 C306.943617,1940.017 306.301533,1940.11475 305.7457,1940.31025 C305.189867,1940.50575 304.726033,1940.76642 304.3542,1941.09225 C303.982367,1941.41808 303.700617,1941.7995 303.50895,1942.2365 C303.317283,1942.6735 303.22145,1943.1335 303.22145,1943.6165 C303.22145,1944.13783 303.303867,1944.5825 303.4687,1944.9505 C303.633533,1945.3185 303.852033,1945.629 304.1242,1945.882 C304.396367,1946.135 304.706867,1946.34392 305.0557,1946.50875 C305.404533,1946.67358 305.761033,1946.81733 306.1252,1946.94 C306.489367,1947.06267 306.845867,1947.17575 307.1947,1947.27925 C307.543533,1947.38275 307.854033,1947.49967 308.1262,1947.63 C308.398367,1947.76033 308.616867,1947.91367 308.7817,1948.09 C308.946533,1948.26633 309.02895,1948.4925 309.02895,1948.7685 C309.02895,1948.9525 308.992533,1949.13075 308.9197,1949.30325 C308.846867,1949.47575 308.731867,1949.62717 308.5747,1949.7575 C308.417533,1949.88783 308.2182,1949.99325 307.9767,1950.07375 C307.7352,1950.15425 307.445783,1950.1945 307.10845,1950.1945 C306.679117,1950.1945 306.324533,1950.14467 306.0447,1950.045 C305.764867,1949.94533 305.52145,1949.838 305.31445,1949.723 C305.10745,1949.608 304.925367,1949.50067 304.7682,1949.401 C304.611033,1949.30133 304.444283,1949.2515 304.26795,1949.2515 C304.091617,1949.2515 303.94595,1949.286 303.83095,1949.355 C303.71595,1949.424 303.616283,1949.52367 303.53195,1949.654 L303.53195,1949.654 L302.87645,1950.735 C303.10645,1950.942 303.372867,1951.13367 303.6757,1951.31 C303.978533,1951.48633 304.3082,1951.63967 304.6647,1951.77 C305.0212,1951.90033 305.393033,1952.00192 305.7802,1952.07475 C306.167367,1952.14758 306.564117,1952.184 306.97045,1952.184 Z M322.12055,1955.956 L322.12055,1934.2095 L319.91255,1934.2095 L319.91255,1955.956 L322.12055,1955.956 Z M337.74215,1952 C338.70815,1952 339.566817,1951.87733 340.31815,1951.632 C341.069483,1951.38667 341.701983,1951.04742 342.21565,1950.61425 C342.729317,1950.18108 343.120317,1949.6655 343.38865,1949.0675 C343.656983,1948.4695 343.79115,1947.81783 343.79115,1947.1125 C343.79115,1945.1575 342.648817,1943.92317 340.36415,1943.4095 C340.877817,1943.23317 341.320567,1943.0185 341.6924,1942.7655 C342.064233,1942.5125 342.3709,1942.23075 342.6124,1941.92025 C342.8539,1941.60975 343.03215,1941.27625 343.14715,1940.91975 C343.26215,1940.56325 343.31965,1940.1895 343.31965,1939.7985 C343.31965,1939.11617 343.20465,1938.50283 342.97465,1937.9585 C342.74465,1937.41417 342.3824,1936.95033 341.8879,1936.567 C341.3934,1936.18367 340.758983,1935.8885 339.98465,1935.6815 C339.210317,1935.4745 338.278817,1935.371 337.19015,1935.371 L337.19015,1935.371 L331.46315,1935.371 L331.46315,1952 L337.74215,1952 Z M337.01765,1942.57 L334.55665,1942.57 L334.55665,1937.763 L337.19015,1937.763 C338.232817,1937.763 338.999483,1937.947 339.49015,1938.315 C339.980817,1938.683 340.22615,1939.30017 340.22615,1940.1665 C340.22615,1941.00217 339.9559,1941.61167 339.4154,1941.995 C338.8749,1942.37833 338.07565,1942.57 337.01765,1942.57 L337.01765,1942.57 Z M337.68465,1949.585 L334.55665,1949.585 L334.55665,1944.709 L337.67315,1944.709 C338.217483,1944.709 338.683233,1944.76267 339.0704,1944.87 C339.457567,1944.97733 339.773817,1945.13258 340.01915,1945.33575 C340.264483,1945.53892 340.44465,1945.78425 340.55965,1946.07175 C340.67465,1946.35925 340.73215,1946.68317 340.73215,1947.0435 C340.73215,1947.3885 340.6804,1947.71433 340.5769,1948.021 C340.4734,1948.32767 340.304733,1948.596 340.0709,1948.826 C339.837067,1949.056 339.52465,1949.24 339.13365,1949.378 C338.74265,1949.516 338.25965,1949.585 337.68465,1949.585 L337.68465,1949.585 Z M351.16495,1952.1725 C351.57895,1952.1725 352.006367,1952.14183 352.4472,1952.0805 C352.888033,1952.01917 353.3212,1951.91375 353.7467,1951.76425 C354.1722,1951.61475 354.58045,1951.41542 354.97145,1951.16625 C355.36245,1950.91708 355.715117,1950.6085 356.02945,1950.2405 L356.02945,1950.2405 L355.21295,1949.2055 C355.09795,1949.02917 354.921617,1948.941 354.68395,1948.941 C354.507617,1948.941 354.325533,1948.99467 354.1377,1949.102 C353.949867,1949.20933 353.731367,1949.32817 353.4822,1949.4585 C353.233033,1949.58883 352.9417,1949.70767 352.6082,1949.815 C352.2747,1949.92233 351.87795,1949.976 351.41795,1949.976 C350.95795,1949.976 350.5382,1949.90508 350.1587,1949.76325 C349.7792,1949.62142 349.45145,1949.40675 349.17545,1949.11925 C348.89945,1948.83175 348.677117,1948.46758 348.50845,1948.02675 C348.339783,1947.58592 348.23245,1947.06267 348.18645,1946.457 L348.18645,1946.457 L355.48895,1946.457 C355.749617,1946.457 355.92595,1946.38225 356.01795,1946.23275 C356.10995,1946.08325 356.15595,1945.79383 356.15595,1945.3645 C356.15595,1944.5135 356.027533,1943.75642 355.7707,1943.09325 C355.513867,1942.43008 355.159283,1941.87042 354.70695,1941.41425 C354.254617,1940.95808 353.714117,1940.61117 353.08545,1940.3735 C352.456783,1940.13583 351.770617,1940.017 351.02695,1940.017 C350.145283,1940.017 349.3537,1940.17033 348.6522,1940.477 C347.9507,1940.78367 347.356533,1941.19958 346.8697,1941.72475 C346.382867,1942.24992 346.009117,1942.86708 345.74845,1943.57625 C345.487783,1944.28542 345.35745,1945.0425 345.35745,1945.8475 C345.35745,1946.8825 345.50695,1947.79292 345.80595,1948.57875 C346.10495,1949.36458 346.515117,1950.02392 347.03645,1950.55675 C347.557783,1951.08958 348.171117,1951.49208 348.87645,1951.76425 C349.581783,1952.03642 350.344617,1952.1725 351.16495,1952.1725 Z M353.60295,1944.7435 L348.24395,1944.7435 C348.374283,1943.88483 348.6752,1943.22167 349.1467,1942.754 C349.6182,1942.28633 350.264117,1942.0525 351.08445,1942.0525 C351.506117,1942.0525 351.876033,1942.12342 352.1942,1942.26525 C352.512367,1942.40708 352.77495,1942.60067 352.98195,1942.846 C353.18895,1943.09133 353.3442,1943.37692 353.4477,1943.70275 C353.5512,1944.02858 353.60295,1944.3755 353.60295,1944.7435 L353.60295,1944.7435 Z M367.05105,1952 L367.05105,1941.259 C367.05105,1941.052 367.043383,1940.82583 367.02805,1940.5805 C367.012717,1940.33517 366.99355,1940.086 366.97055,1939.833 L366.97055,1939.833 L372.05355,1949.309 C372.291217,1949.76133 372.655383,1949.9875 373.14605,1949.9875 L373.14605,1949.9875 L373.58305,1949.9875 C374.073717,1949.9875 374.437883,1949.76133 374.67555,1949.309 L374.67555,1949.309 L379.70105,1939.8675 C379.65505,1940.36583 379.63205,1940.82967 379.63205,1941.259 L379.63205,1941.259 L379.63205,1952 L382.35755,1952 L382.35755,1935.371 L380.02305,1935.371 C379.88505,1935.371 379.766217,1935.37483 379.66655,1935.3825 C379.566883,1935.39017 379.4768,1935.40933 379.3963,1935.44 C379.3158,1935.47067 379.24105,1935.5205 379.17205,1935.5895 C379.10305,1935.6585 379.037883,1935.7505 378.97655,1935.8655 L378.97655,1935.8655 L374.06605,1945.077 C373.935717,1945.32233 373.81305,1945.57725 373.69805,1945.84175 C373.58305,1946.10625 373.471883,1946.38033 373.36455,1946.664 C373.257217,1946.388 373.147967,1946.11967 373.0368,1945.859 C372.925633,1945.59833 372.804883,1945.34533 372.67455,1945.1 L372.67455,1945.1 L367.69505,1935.8655 C367.633717,1935.7505 367.570467,1935.6585 367.5053,1935.5895 C367.440133,1935.5205 367.3673,1935.47067 367.2868,1935.44 C367.2063,1935.40933 367.116217,1935.39017 367.01655,1935.3825 C366.916883,1935.37483 366.79805,1935.371 366.66005,1935.371 L366.66005,1935.371 L364.32555,1935.371 L364.32555,1952 L367.05105,1952 Z M390.47885,1952.1725 C391.35285,1952.1725 392.148267,1952.03067 392.8651,1951.747 C393.581933,1951.46333 394.195267,1951.057 394.7051,1950.528 C395.214933,1949.999 395.60785,1949.35883 395.88385,1948.6075 C396.15985,1947.85617 396.29785,1947.01283 396.29785,1946.0775 C396.29785,1945.14983 396.15985,1944.31033 395.88385,1943.559 C395.60785,1942.80767 395.214933,1942.17133 394.7051,1941.65 C394.195267,1941.12867 393.581933,1940.72617 392.8651,1940.4425 C392.148267,1940.15883 391.35285,1940.017 390.47885,1940.017 C389.597183,1940.017 388.796017,1940.15883 388.07535,1940.4425 C387.354683,1940.72617 386.739433,1941.12867 386.2296,1941.65 C385.719767,1942.17133 385.324933,1942.80767 385.0451,1943.559 C384.765267,1944.31033 384.62535,1945.14983 384.62535,1946.0775 C384.62535,1947.01283 384.765267,1947.85617 385.0451,1948.6075 C385.324933,1949.35883 385.719767,1949.999 386.2296,1950.528 C386.739433,1951.057 387.354683,1951.46333 388.07535,1951.747 C388.796017,1952.03067 389.597183,1952.1725 390.47885,1952.1725 Z M390.47885,1949.9875 C389.482183,1949.9875 388.744267,1949.65592 388.2651,1948.99275 C387.785933,1948.32958 387.54635,1947.3655 387.54635,1946.1005 C387.54635,1944.8355 387.785933,1943.86758 388.2651,1943.19675 C388.744267,1942.52592 389.482183,1942.1905 390.47885,1942.1905 C391.460183,1942.1905 392.1866,1942.524 392.6581,1943.191 C393.1296,1943.858 393.36535,1944.82783 393.36535,1946.1005 C393.36535,1947.37317 393.1296,1948.33917 392.6581,1948.9985 C392.1866,1949.65783 391.460183,1949.9875 390.47885,1949.9875 Z M401.31415,1952 L401.31415,1944.732 C401.444483,1944.41767 401.5844,1944.13783 401.7339,1943.8925 C401.8834,1943.64717 402.0559,1943.43825 402.2514,1943.26575 C402.4469,1943.09325 402.667317,1942.961 402.91265,1942.869 C403.157983,1942.777 403.437817,1942.731 403.75215,1942.731 C403.966817,1942.731 404.187233,1942.75017 404.4134,1942.7885 C404.639567,1942.82683 404.81015,1942.846 404.92515,1942.846 C405.047817,1942.846 405.145567,1942.81725 405.2184,1942.75975 C405.291233,1942.70225 405.346817,1942.6045 405.38515,1942.4665 L405.38515,1942.4665 L405.56915,1940.339 C405.239483,1940.10133 404.802483,1939.9825 404.25815,1939.9825 C403.56815,1939.9825 402.97015,1940.18375 402.46415,1940.58625 C401.95815,1940.98875 401.52115,1941.54267 401.15315,1942.248 L401.15315,1942.248 L400.98065,1940.914 C400.942317,1940.64567 400.86565,1940.45975 400.75065,1940.35625 C400.63565,1940.25275 400.432483,1940.201 400.14115,1940.201 L400.14115,1940.201 L398.47365,1940.201 L398.47365,1952 L401.31415,1952 Z M411.88495,1952.1725 C412.29895,1952.1725 412.726367,1952.14183 413.1672,1952.0805 C413.608033,1952.01917 414.0412,1951.91375 414.4667,1951.76425 C414.8922,1951.61475 415.30045,1951.41542 415.69145,1951.16625 C416.08245,1950.91708 416.435117,1950.6085 416.74945,1950.2405 L416.74945,1950.2405 L415.93295,1949.2055 C415.81795,1949.02917 415.641617,1948.941 415.40395,1948.941 C415.227617,1948.941 415.045533,1948.99467 414.8577,1949.102 C414.669867,1949.20933 414.451367,1949.32817 414.2022,1949.4585 C413.953033,1949.58883 413.6617,1949.70767 413.3282,1949.815 C412.9947,1949.92233 412.59795,1949.976 412.13795,1949.976 C411.67795,1949.976 411.2582,1949.90508 410.8787,1949.76325 C410.4992,1949.62142 410.17145,1949.40675 409.89545,1949.11925 C409.61945,1948.83175 409.397117,1948.46758 409.22845,1948.02675 C409.059783,1947.58592 408.95245,1947.06267 408.90645,1946.457 L408.90645,1946.457 L416.20895,1946.457 C416.469617,1946.457 416.64595,1946.38225 416.73795,1946.23275 C416.82995,1946.08325 416.87595,1945.79383 416.87595,1945.3645 C416.87595,1944.5135 416.747533,1943.75642 416.4907,1943.09325 C416.233867,1942.43008 415.879283,1941.87042 415.42695,1941.41425 C414.974617,1940.95808 414.434117,1940.61117 413.80545,1940.3735 C413.176783,1940.13583 412.490617,1940.017 411.74695,1940.017 C410.865283,1940.017 410.0737,1940.17033 409.3722,1940.477 C408.6707,1940.78367 408.076533,1941.19958 407.5897,1941.72475 C407.102867,1942.24992 406.729117,1942.86708 406.46845,1943.57625 C406.207783,1944.28542 406.07745,1945.0425 406.07745,1945.8475 C406.07745,1946.8825 406.22695,1947.79292 406.52595,1948.57875 C406.82495,1949.36458 407.235117,1950.02392 407.75645,1950.55675 C408.277783,1951.08958 408.891117,1951.49208 409.59645,1951.76425 C410.301783,1952.03642 411.064617,1952.1725 411.88495,1952.1725 Z M414.32295,1944.7435 L408.96395,1944.7435 C409.094283,1943.88483 409.3952,1943.22167 409.8667,1942.754 C410.3382,1942.28633 410.984117,1942.0525 411.80445,1942.0525 C412.226117,1942.0525 412.596033,1942.12342 412.9142,1942.26525 C413.232367,1942.40708 413.49495,1942.60067 413.70195,1942.846 C413.90895,1943.09133 414.0642,1943.37692 414.1677,1943.70275 C414.2712,1944.02858 414.32295,1944.3755 414.32295,1944.7435 L414.32295,1944.7435 Z M428.13905,1952 L428.13905,1946.1465 L430.45055,1946.1465 C431.53155,1946.1465 432.476467,1946.01233 433.2853,1945.744 C434.094133,1945.47567 434.766883,1945.1 435.30355,1944.617 C435.840217,1944.134 436.242717,1943.55708 436.51105,1942.88625 C436.779383,1942.21542 436.91355,1941.4775 436.91355,1940.6725 C436.91355,1939.89817 436.785133,1939.18517 436.5283,1938.5335 C436.271467,1937.88183 435.87855,1937.32217 435.34955,1936.8545 C434.82055,1936.38683 434.149717,1936.02267 433.33705,1935.762 C432.524383,1935.50133 431.562217,1935.371 430.45055,1935.371 L430.45055,1935.371 L425.04555,1935.371 L425.04555,1952 L428.13905,1952 Z M430.45055,1943.7315 L428.13905,1943.7315 L428.13905,1937.763 L430.45055,1937.763 C431.02555,1937.763 431.523883,1937.83008 431.94555,1937.96425 C432.367217,1938.09842 432.71605,1938.292 432.99205,1938.545 C433.26805,1938.798 433.47505,1939.10467 433.61305,1939.465 C433.75105,1939.82533 433.82005,1940.22783 433.82005,1940.6725 C433.82005,1941.14017 433.75105,1941.56375 433.61305,1941.94325 C433.47505,1942.32275 433.266133,1942.64475 432.9863,1942.90925 C432.706467,1943.17375 432.355717,1943.37692 431.93405,1943.51875 C431.512383,1943.66058 431.017883,1943.7315 430.45055,1943.7315 L430.45055,1943.7315 Z M441.49285,1952 L441.49285,1944.732 C441.623183,1944.41767 441.7631,1944.13783 441.9126,1943.8925 C442.0621,1943.64717 442.2346,1943.43825 442.4301,1943.26575 C442.6256,1943.09325 442.846017,1942.961 443.09135,1942.869 C443.336683,1942.777 443.616517,1942.731 443.93085,1942.731 C444.145517,1942.731 444.365933,1942.75017 444.5921,1942.7885 C444.818267,1942.82683 444.98885,1942.846 445.10385,1942.846 C445.226517,1942.846 445.324267,1942.81725 445.3971,1942.75975 C445.469933,1942.70225 445.525517,1942.6045 445.56385,1942.4665 L445.56385,1942.4665 L445.74785,1940.339 C445.418183,1940.10133 444.981183,1939.9825 444.43685,1939.9825 C443.74685,1939.9825 443.14885,1940.18375 442.64285,1940.58625 C442.13685,1940.98875 441.69985,1941.54267 441.33185,1942.248 L441.33185,1942.248 L441.15935,1940.914 C441.121017,1940.64567 441.04435,1940.45975 440.92935,1940.35625 C440.81435,1940.25275 440.611183,1940.201 440.31985,1940.201 L440.31985,1940.201 L438.65235,1940.201 L438.65235,1952 L441.49285,1952 Z M452.12115,1952.1725 C452.99515,1952.1725 453.790567,1952.03067 454.5074,1951.747 C455.224233,1951.46333 455.837567,1951.057 456.3474,1950.528 C456.857233,1949.999 457.25015,1949.35883 457.52615,1948.6075 C457.80215,1947.85617 457.94015,1947.01283 457.94015,1946.0775 C457.94015,1945.14983 457.80215,1944.31033 457.52615,1943.559 C457.25015,1942.80767 456.857233,1942.17133 456.3474,1941.65 C455.837567,1941.12867 455.224233,1940.72617 454.5074,1940.4425 C453.790567,1940.15883 452.99515,1940.017 452.12115,1940.017 C451.239483,1940.017 450.438317,1940.15883 449.71765,1940.4425 C448.996983,1940.72617 448.381733,1941.12867 447.8719,1941.65 C447.362067,1942.17133 446.967233,1942.80767 446.6874,1943.559 C446.407567,1944.31033 446.26765,1945.14983 446.26765,1946.0775 C446.26765,1947.01283 446.407567,1947.85617 446.6874,1948.6075 C446.967233,1949.35883 447.362067,1949.999 447.8719,1950.528 C448.381733,1951.057 448.996983,1951.46333 449.71765,1951.747 C450.438317,1952.03067 451.239483,1952.1725 452.12115,1952.1725 Z M452.12115,1949.9875 C451.124483,1949.9875 450.386567,1949.65592 449.9074,1948.99275 C449.428233,1948.32958 449.18865,1947.3655 449.18865,1946.1005 C449.18865,1944.8355 449.428233,1943.86758 449.9074,1943.19675 C450.386567,1942.52592 451.124483,1942.1905 452.12115,1942.1905 C453.102483,1942.1905 453.8289,1942.524 454.3004,1943.191 C454.7719,1943.858 455.00765,1944.82783 455.00765,1946.1005 C455.00765,1947.37317 454.7719,1948.33917 454.3004,1948.9985 C453.8289,1949.65783 453.102483,1949.9875 452.12115,1949.9875 Z M463.87645,1952.1725 C464.696783,1952.1725 465.415533,1952.00383 466.0327,1951.6665 C466.649867,1951.32917 467.196117,1950.88833 467.67145,1950.344 L467.67145,1950.344 L467.91295,1951.4825 C468.012617,1951.8275 468.250283,1952 468.62595,1952 L468.62595,1952 L470.36245,1952 L470.36245,1934.911 L467.52195,1934.911 L467.52195,1941.1325 C467.15395,1940.77983 466.736117,1940.5 466.26845,1940.293 C465.800783,1940.086 465.237283,1939.9825 464.57795,1939.9825 C463.803617,1939.9825 463.10595,1940.13775 462.48495,1940.44825 C461.86395,1940.75875 461.331117,1941.19 460.88645,1941.742 C460.441783,1942.294 460.100617,1942.94567 459.86295,1943.697 C459.625283,1944.44833 459.50645,1945.261 459.50645,1946.135 C459.50645,1947.101 459.611867,1947.95967 459.8227,1948.711 C460.033533,1949.46233 460.332533,1950.09292 460.7197,1950.60275 C461.106867,1951.11258 461.568783,1951.50167 462.10545,1951.77 C462.642117,1952.03833 463.23245,1952.1725 463.87645,1952.1725 Z M464.84245,1949.9185 C464.47445,1949.9185 464.14095,1949.85142 463.84195,1949.71725 C463.54295,1949.58308 463.28995,1949.36458 463.08295,1949.06175 C462.87595,1948.75892 462.716867,1948.36792 462.6057,1947.88875 C462.494533,1947.40958 462.43895,1946.825 462.43895,1946.135 C462.43895,1945.45267 462.504117,1944.86042 462.63445,1944.35825 C462.764783,1943.85608 462.952617,1943.44208 463.19795,1943.11625 C463.443283,1942.79042 463.73845,1942.547 464.08345,1942.386 C464.42845,1942.225 464.815617,1942.1445 465.24495,1942.1445 C465.68195,1942.1445 466.0902,1942.225 466.4697,1942.386 C466.8492,1942.547 467.19995,1942.823 467.52195,1943.214 L467.52195,1943.214 L467.52195,1948.504 C467.15395,1948.95633 466.76295,1949.30517 466.34895,1949.5505 C465.93495,1949.79583 465.432783,1949.9185 464.84245,1949.9185 Z M477.03475,1952.184 C477.824417,1952.184 478.510583,1952.03258 479.09325,1951.72975 C479.675917,1951.42692 480.20875,1951.03017 480.69175,1950.5395 L480.69175,1950.5395 L480.88725,1951.4825 C480.986917,1951.8275 481.224583,1952 481.60025,1952 L481.60025,1952 L483.33675,1952 L483.33675,1940.201 L480.49625,1940.201 L480.49625,1948.734 C480.112917,1949.11733 479.706583,1949.41825 479.27725,1949.63675 C478.847917,1949.85525 478.387917,1949.9645 477.89725,1949.9645 C477.23025,1949.9645 476.73,1949.76708 476.3965,1949.37225 C476.063,1948.97742 475.89625,1948.41967 475.89625,1947.699 L475.89625,1947.699 L475.89625,1940.201 L473.05575,1940.201 L473.05575,1947.699 C473.05575,1948.35833 473.142,1948.96208 473.3145,1949.51025 C473.487,1950.05842 473.741917,1950.53183 474.07925,1950.9305 C474.416583,1951.32917 474.8325,1951.63775 475.327,1951.85625 C475.8215,1952.07475 476.39075,1952.184 477.03475,1952.184 Z M490.82555,1952.1725 C491.23955,1952.1725 491.655467,1952.14183 492.0733,1952.0805 C492.491133,1952.01917 492.897467,1951.91375 493.2923,1951.76425 C493.687133,1951.61475 494.06855,1951.41542 494.43655,1951.16625 C494.80455,1950.91708 495.145717,1950.6085 495.46005,1950.2405 L495.46005,1950.2405 L494.64355,1949.2055 C494.52855,1949.02917 494.35605,1948.941 494.12605,1948.941 C493.949717,1948.941 493.790633,1948.99658 493.6488,1949.10775 C493.506967,1949.21892 493.340217,1949.34158 493.14855,1949.47575 C492.956883,1949.60992 492.721133,1949.73258 492.4413,1949.84375 C492.161467,1949.95492 491.795383,1950.0105 491.34305,1950.0105 C490.890717,1950.0105 490.484383,1949.92425 490.12405,1949.75175 C489.763717,1949.57925 489.45705,1949.32625 489.20405,1948.99275 C488.95105,1948.65925 488.757467,1948.24717 488.6233,1947.7565 C488.489133,1947.26583 488.42205,1946.70617 488.42205,1946.0775 C488.42205,1945.47183 488.483383,1944.92942 488.60605,1944.45025 C488.728717,1943.97108 488.914633,1943.56283 489.1638,1943.2255 C489.412967,1942.88817 489.725383,1942.62942 490.10105,1942.44925 C490.476717,1942.26908 490.913717,1942.179 491.41205,1942.179 C491.80305,1942.179 492.1308,1942.22308 492.3953,1942.31125 C492.6598,1942.39942 492.887883,1942.49908 493.07955,1942.61025 C493.271217,1942.72142 493.43605,1942.82108 493.57405,1942.90925 C493.71205,1942.99742 493.853883,1943.0415 493.99955,1943.0415 C494.152883,1943.0415 494.2698,1943.01083 494.3503,1942.9495 C494.4308,1942.88817 494.513217,1942.80383 494.59755,1942.6965 L494.59755,1942.6965 L495.34505,1941.6615 C494.81605,1941.1325 494.219967,1940.72617 493.5568,1940.4425 C492.893633,1940.15883 492.121217,1940.017 491.23955,1940.017 C490.311883,1940.017 489.49155,1940.17033 488.77855,1940.477 C488.06555,1940.78367 487.46755,1941.20725 486.98455,1941.74775 C486.50155,1942.28825 486.135467,1942.92842 485.8863,1943.66825 C485.637133,1944.40808 485.51255,1945.21117 485.51255,1946.0775 C485.51255,1947.0435 485.652467,1947.90408 485.9323,1948.65925 C486.212133,1949.41442 486.59355,1950.05267 487.07655,1950.574 C487.55955,1951.09533 488.12305,1951.49208 488.76705,1951.76425 C489.41105,1952.03642 490.097217,1952.1725 490.82555,1952.1725 Z M507.77885,1938.5105 C508.03185,1938.5105 508.271433,1938.46258 508.4976,1938.36675 C508.723767,1938.27092 508.919267,1938.1425 509.0841,1937.9815 C509.248933,1937.8205 509.381183,1937.63075 509.48085,1937.41225 C509.580517,1937.19375 509.63035,1936.96183 509.63035,1936.7165 C509.63035,1936.4635 509.580517,1936.22775 509.48085,1936.00925 C509.381183,1935.79075 509.248933,1935.59908 509.0841,1935.43425 C508.919267,1935.26942 508.723767,1935.13908 508.4976,1935.04325 C508.271433,1934.94742 508.03185,1934.8995 507.77885,1934.8995 C507.533517,1934.8995 507.303517,1934.94742 507.08885,1935.04325 C506.874183,1935.13908 506.68635,1935.26942 506.52535,1935.43425 C506.36435,1935.59908 506.235933,1935.79075 506.1401,1936.00925 C506.044267,1936.22775 505.99635,1936.4635 505.99635,1936.7165 C505.99635,1936.96183 506.044267,1937.19375 506.1401,1937.41225 C506.235933,1937.63075 506.36435,1937.8205 506.52535,1937.9815 C506.68635,1938.1425 506.874183,1938.27092 507.08885,1938.36675 C507.303517,1938.46258 507.533517,1938.5105 507.77885,1938.5105 Z M501.16635,1952.184 C501.74135,1952.184 502.297183,1952.09583 502.83385,1951.9195 C503.370517,1951.74317 503.84585,1951.4825 504.25985,1951.1375 L504.25985,1951.1375 L503.40885,1949.7575 C503.347517,1949.67317 503.290017,1949.60992 503.23635,1949.56775 C503.182683,1949.52558 503.113683,1949.5045 503.02935,1949.5045 C502.96035,1949.5045 502.89135,1949.52558 502.82235,1949.56775 C502.75335,1949.60992 502.674767,1949.654 502.5866,1949.7 C502.498433,1949.746 502.394933,1949.79008 502.2761,1949.83225 C502.157267,1949.87442 502.009683,1949.8955 501.83335,1949.8955 C501.519017,1949.8955 501.271767,1949.792 501.0916,1949.585 C500.911433,1949.378 500.82135,1949.0905 500.82135,1948.7225 L500.82135,1948.7225 L500.82135,1942.3285 L506.29535,1942.3285 L506.29535,1952 L509.13585,1952 L509.13585,1940.3045 L500.82135,1940.3045 L500.82135,1936.59 L499.34935,1936.59 C499.180683,1936.59 499.042683,1936.63217 498.93535,1936.7165 C498.828017,1936.80083 498.755183,1936.91967 498.71685,1937.073 L498.71685,1937.073 L498.11885,1940.2815 L496.22135,1940.6035 L496.22135,1941.7305 C496.22135,1941.92983 496.275017,1942.07933 496.38235,1942.179 C496.489683,1942.27867 496.620017,1942.3285 496.77335,1942.3285 L496.77335,1942.3285 L497.98085,1942.3285 L497.98085,1948.918 C497.98085,1949.93767 498.254933,1950.73692 498.8031,1951.31575 C499.351267,1951.89458 500.139017,1952.184 501.16635,1952.184 Z M517.99315,1952 L522.67365,1940.201 L520.43115,1940.201 C520.239483,1940.201 520.07465,1940.25083 519.93665,1940.3505 C519.79865,1940.45017 519.702817,1940.57667 519.64915,1940.73 L519.64915,1940.73 L517.32615,1947.032 C517.195817,1947.4 517.08465,1947.76033 516.99265,1948.113 C516.90065,1948.46567 516.816317,1948.81833 516.73965,1949.171 C516.67065,1948.81833 516.59015,1948.46567 516.49815,1948.113 C516.40615,1947.76033 516.298817,1947.4 516.17615,1947.032 L516.17615,1947.032 L513.89915,1940.73 C513.85315,1940.57667 513.759233,1940.45017 513.6174,1940.3505 C513.475567,1940.25083 513.297317,1940.201 513.08265,1940.201 L513.08265,1940.201 L510.73665,1940.201 L515.41715,1952 L517.99315,1952 Z M528.97795,1952.1725 C529.39195,1952.1725 529.819367,1952.14183 530.2602,1952.0805 C530.701033,1952.01917 531.1342,1951.91375 531.5597,1951.76425 C531.9852,1951.61475 532.39345,1951.41542 532.78445,1951.16625 C533.17545,1950.91708 533.528117,1950.6085 533.84245,1950.2405 L533.84245,1950.2405 L533.02595,1949.2055 C532.91095,1949.02917 532.734617,1948.941 532.49695,1948.941 C532.320617,1948.941 532.138533,1948.99467 531.9507,1949.102 C531.762867,1949.20933 531.544367,1949.32817 531.2952,1949.4585 C531.046033,1949.58883 530.7547,1949.70767 530.4212,1949.815 C530.0877,1949.92233 529.69095,1949.976 529.23095,1949.976 C528.77095,1949.976 528.3512,1949.90508 527.9717,1949.76325 C527.5922,1949.62142 527.26445,1949.40675 526.98845,1949.11925 C526.71245,1948.83175 526.490117,1948.46758 526.32145,1948.02675 C526.152783,1947.58592 526.04545,1947.06267 525.99945,1946.457 L525.99945,1946.457 L533.30195,1946.457 C533.562617,1946.457 533.73895,1946.38225 533.83095,1946.23275 C533.92295,1946.08325 533.96895,1945.79383 533.96895,1945.3645 C533.96895,1944.5135 533.840533,1943.75642 533.5837,1943.09325 C533.326867,1942.43008 532.972283,1941.87042 532.51995,1941.41425 C532.067617,1940.95808 531.527117,1940.61117 530.89845,1940.3735 C530.269783,1940.13583 529.583617,1940.017 528.83995,1940.017 C527.958283,1940.017 527.1667,1940.17033 526.4652,1940.477 C525.7637,1940.78367 525.169533,1941.19958 524.6827,1941.72475 C524.195867,1942.24992 523.822117,1942.86708 523.56145,1943.57625 C523.300783,1944.28542 523.17045,1945.0425 523.17045,1945.8475 C523.17045,1946.8825 523.31995,1947.79292 523.61895,1948.57875 C523.91795,1949.36458 524.328117,1950.02392 524.84945,1950.55675 C525.370783,1951.08958 525.984117,1951.49208 526.68945,1951.76425 C527.394783,1952.03642 528.157617,1952.1725 528.97795,1952.1725 Z M531.41595,1944.7435 L526.05695,1944.7435 C526.187283,1943.88483 526.4882,1943.22167 526.9597,1942.754 C527.4312,1942.28633 528.077117,1942.0525 528.89745,1942.0525 C529.319117,1942.0525 529.689033,1942.12342 530.0072,1942.26525 C530.325367,1942.40708 530.58795,1942.60067 530.79495,1942.846 C531.00195,1943.09133 531.1572,1943.37692 531.2607,1943.70275 C531.3642,1944.02858 531.41595,1944.3755 531.41595,1944.7435 L531.41595,1944.7435 Z M149.62055,1980 L149.62055,1977.5275 L142.23755,1977.5275 L142.23755,1972.824 L148.05655,1972.824 L148.05655,1970.4435 L142.23755,1970.4435 L142.23755,1965.832 L149.62055,1965.832 L149.62055,1963.371 L139.13255,1963.371 L139.13255,1980 L149.62055,1980 Z M153.11885,1980 C153.30285,1980 153.456183,1979.94442 153.57885,1979.83325 C153.701517,1979.72208 153.805017,1979.60133 153.88935,1979.471 L153.88935,1979.471 L156.09735,1976.0555 C156.158683,1975.95583 156.214267,1975.8485 156.2641,1975.7335 C156.313933,1975.6185 156.358017,1975.49583 156.39635,1975.3655 L156.39635,1975.3655 L158.89185,1979.471 C158.976183,1979.609 159.0816,1979.73167 159.2081,1979.839 C159.3346,1979.94633 159.50135,1980 159.70835,1980 L159.70835,1980 L162.44535,1980 L158.40885,1973.79 L162.28435,1968.201 L159.67385,1968.201 C159.405517,1968.201 159.187017,1968.34283 159.01835,1968.6265 L159.01835,1968.6265 L157.02885,1971.7315 C156.875517,1971.9845 156.756683,1972.24133 156.67235,1972.502 L156.67235,1972.502 L154.19985,1968.569 C154.123183,1968.43867 154.035017,1968.34475 153.93535,1968.28725 C153.835683,1968.22975 153.68235,1968.201 153.47535,1968.201 L153.47535,1968.201 L150.73835,1968.201 L154.62535,1973.9165 L150.57735,1980 L153.11885,1980 Z M166.76015,1983.8525 L166.76015,1979.0225 C167.12815,1979.38283 167.545983,1979.66458 168.01365,1979.86775 C168.481317,1980.07092 169.044817,1980.1725 169.70415,1980.1725 C170.478483,1980.1725 171.178067,1980.01725 171.8029,1979.70675 C172.427733,1979.39625 172.960567,1978.965 173.4014,1978.413 C173.842233,1977.861 174.181483,1977.20933 174.41915,1976.458 C174.656817,1975.70667 174.77565,1974.89017 174.77565,1974.0085 C174.77565,1973.0425 174.670233,1972.18575 174.4594,1971.43825 C174.248567,1970.69075 173.949567,1970.06208 173.5624,1969.55225 C173.175233,1969.04242 172.715233,1968.65333 172.1824,1968.385 C171.649567,1968.11667 171.06115,1967.9825 170.41715,1967.9825 C169.58915,1967.9825 168.868483,1968.15117 168.25515,1968.4885 C167.641817,1968.82583 167.09365,1969.26667 166.61065,1969.811 L166.61065,1969.811 L166.38065,1968.7185 C166.26565,1968.3735 166.02415,1968.201 165.65615,1968.201 L165.65615,1968.201 L163.91965,1968.201 L163.91965,1983.8525 L166.76015,1983.8525 Z M169.04865,1978.0105 C168.603983,1978.0105 168.1919,1977.93 167.8124,1977.769 C167.4329,1977.608 167.08215,1977.332 166.76015,1976.941 L166.76015,1976.941 L166.76015,1971.651 C167.12815,1971.19867 167.51915,1970.84792 167.93315,1970.59875 C168.34715,1970.34958 168.849317,1970.225 169.43965,1970.225 C169.815317,1970.225 170.150733,1970.294 170.4459,1970.432 C170.741067,1970.57 170.99215,1970.7885 171.19915,1971.0875 C171.40615,1971.3865 171.565233,1971.77558 171.6764,1972.25475 C171.787567,1972.73392 171.84315,1973.3185 171.84315,1974.0085 C171.84315,1974.69083 171.777983,1975.28308 171.64765,1975.78525 C171.517317,1976.28742 171.3314,1976.70333 171.0899,1977.033 C170.8484,1977.36267 170.55515,1977.608 170.21015,1977.769 C169.86515,1977.93 169.477983,1978.0105 169.04865,1978.0105 Z M182.14945,1980.1725 C182.56345,1980.1725 182.990867,1980.14183 183.4317,1980.0805 C183.872533,1980.01917 184.3057,1979.91375 184.7312,1979.76425 C185.1567,1979.61475 185.56495,1979.41542 185.95595,1979.16625 C186.34695,1978.91708 186.699617,1978.6085 187.01395,1978.2405 L187.01395,1978.2405 L186.19745,1977.2055 C186.08245,1977.02917 185.906117,1976.941 185.66845,1976.941 C185.492117,1976.941 185.310033,1976.99467 185.1222,1977.102 C184.934367,1977.20933 184.715867,1977.32817 184.4667,1977.4585 C184.217533,1977.58883 183.9262,1977.70767 183.5927,1977.815 C183.2592,1977.92233 182.86245,1977.976 182.40245,1977.976 C181.94245,1977.976 181.5227,1977.90508 181.1432,1977.76325 C180.7637,1977.62142 180.43595,1977.40675 180.15995,1977.11925 C179.88395,1976.83175 179.661617,1976.46758 179.49295,1976.02675 C179.324283,1975.58592 179.21695,1975.06267 179.17095,1974.457 L179.17095,1974.457 L186.47345,1974.457 C186.734117,1974.457 186.91045,1974.38225 187.00245,1974.23275 C187.09445,1974.08325 187.14045,1973.79383 187.14045,1973.3645 C187.14045,1972.5135 187.012033,1971.75642 186.7552,1971.09325 C186.498367,1970.43008 186.143783,1969.87042 185.69145,1969.41425 C185.239117,1968.95808 184.698617,1968.61117 184.06995,1968.3735 C183.441283,1968.13583 182.755117,1968.017 182.01145,1968.017 C181.129783,1968.017 180.3382,1968.17033 179.6367,1968.477 C178.9352,1968.78367 178.341033,1969.19958 177.8542,1969.72475 C177.367367,1970.24992 176.993617,1970.86708 176.73295,1971.57625 C176.472283,1972.28542 176.34195,1973.0425 176.34195,1973.8475 C176.34195,1974.8825 176.49145,1975.79292 176.79045,1976.57875 C177.08945,1977.36458 177.499617,1978.02392 178.02095,1978.55675 C178.542283,1979.08958 179.155617,1979.49208 179.86095,1979.76425 C180.566283,1980.03642 181.329117,1980.1725 182.14945,1980.1725 Z M184.58745,1972.7435 L179.22845,1972.7435 C179.358783,1971.88483 179.6597,1971.22167 180.1312,1970.754 C180.6027,1970.28633 181.248617,1970.0525 182.06895,1970.0525 C182.490617,1970.0525 182.860533,1970.12342 183.1787,1970.26525 C183.496867,1970.40708 183.75945,1970.60067 183.96645,1970.846 C184.17345,1971.09133 184.3287,1971.37692 184.4322,1971.70275 C184.5357,1972.02858 184.58745,1972.3755 184.58745,1972.7435 L184.58745,1972.7435 Z M193.03075,1980.1725 C193.851083,1980.1725 194.569833,1980.00383 195.187,1979.6665 C195.804167,1979.32917 196.350417,1978.88833 196.82575,1978.344 L196.82575,1978.344 L197.06725,1979.4825 C197.166917,1979.8275 197.404583,1980 197.78025,1980 L197.78025,1980 L199.51675,1980 L199.51675,1962.911 L196.67625,1962.911 L196.67625,1969.1325 C196.30825,1968.77983 195.890417,1968.5 195.42275,1968.293 C194.955083,1968.086 194.391583,1967.9825 193.73225,1967.9825 C192.957917,1967.9825 192.26025,1968.13775 191.63925,1968.44825 C191.01825,1968.75875 190.485417,1969.19 190.04075,1969.742 C189.596083,1970.294 189.254917,1970.94567 189.01725,1971.697 C188.779583,1972.44833 188.66075,1973.261 188.66075,1974.135 C188.66075,1975.101 188.766167,1975.95967 188.977,1976.711 C189.187833,1977.46233 189.486833,1978.09292 189.874,1978.60275 C190.261167,1979.11258 190.723083,1979.50167 191.25975,1979.77 C191.796417,1980.03833 192.38675,1980.1725 193.03075,1980.1725 Z M193.99675,1977.9185 C193.62875,1977.9185 193.29525,1977.85142 192.99625,1977.71725 C192.69725,1977.58308 192.44425,1977.36458 192.23725,1977.06175 C192.03025,1976.75892 191.871167,1976.36792 191.76,1975.88875 C191.648833,1975.40958 191.59325,1974.825 191.59325,1974.135 C191.59325,1973.45267 191.658417,1972.86042 191.78875,1972.35825 C191.919083,1971.85608 192.106917,1971.44208 192.35225,1971.11625 C192.597583,1970.79042 192.89275,1970.547 193.23775,1970.386 C193.58275,1970.225 193.969917,1970.1445 194.39925,1970.1445 C194.83625,1970.1445 195.2445,1970.225 195.624,1970.386 C196.0035,1970.547 196.35425,1970.823 196.67625,1971.214 L196.67625,1971.214 L196.67625,1976.504 C196.30825,1976.95633 195.91725,1977.30517 195.50325,1977.5505 C195.08925,1977.79583 194.587083,1977.9185 193.99675,1977.9185 Z M203.82005,1966.545 C204.07305,1966.545 204.310717,1966.49708 204.53305,1966.40125 C204.755383,1966.30542 204.948967,1966.177 205.1138,1966.016 C205.278633,1965.855 205.410883,1965.66717 205.51055,1965.4525 C205.610217,1965.23783 205.66005,1965.00783 205.66005,1964.7625 C205.66005,1964.5095 205.610217,1964.27183 205.51055,1964.0495 C205.410883,1963.82717 205.278633,1963.6355 205.1138,1963.4745 C204.948967,1963.3135 204.755383,1963.18508 204.53305,1963.08925 C204.310717,1962.99342 204.07305,1962.9455 203.82005,1962.9455 C203.574717,1962.9455 203.3428,1962.99342 203.1243,1963.08925 C202.9058,1963.18508 202.71605,1963.3135 202.55505,1963.4745 C202.39405,1963.6355 202.265633,1963.82717 202.1698,1964.0495 C202.073967,1964.27183 202.02605,1964.5095 202.02605,1964.7625 C202.02605,1965.00783 202.073967,1965.23783 202.1698,1965.4525 C202.265633,1965.66717 202.39405,1965.855 202.55505,1966.016 C202.71605,1966.177 202.9058,1966.30542 203.1243,1966.40125 C203.3428,1966.49708 203.574717,1966.545 203.82005,1966.545 Z M205.26905,1980 L205.26905,1968.201 L202.41705,1968.201 L202.41705,1980 L205.26905,1980 Z M212.10235,1980.184 C212.67735,1980.184 213.233183,1980.09583 213.76985,1979.9195 C214.306517,1979.74317 214.78185,1979.4825 215.19585,1979.1375 L215.19585,1979.1375 L214.34485,1977.7575 C214.283517,1977.67317 214.226017,1977.60992 214.17235,1977.56775 C214.118683,1977.52558 214.049683,1977.5045 213.96535,1977.5045 C213.89635,1977.5045 213.82735,1977.52558 213.75835,1977.56775 C213.68935,1977.60992 213.610767,1977.654 213.5226,1977.7 C213.434433,1977.746 213.330933,1977.79008 213.2121,1977.83225 C213.093267,1977.87442 212.945683,1977.8955 212.76935,1977.8955 C212.455017,1977.8955 212.207767,1977.792 212.0276,1977.585 C211.847433,1977.378 211.75735,1977.0905 211.75735,1976.7225 L211.75735,1976.7225 L211.75735,1970.3285 L214.90835,1970.3285 L214.90835,1968.3045 L211.75735,1968.3045 L211.75735,1964.59 L210.28535,1964.59 C210.116683,1964.59 209.978683,1964.63217 209.87135,1964.7165 C209.764017,1964.80083 209.691183,1964.91967 209.65285,1965.073 L209.65285,1965.073 L209.05485,1968.293 L207.15735,1968.6035 L207.15735,1969.7305 C207.15735,1969.92983 207.211017,1970.07933 207.31835,1970.179 C207.425683,1970.27867 207.556017,1970.3285 207.70935,1970.3285 L207.70935,1970.3285 L208.91685,1970.3285 L208.91685,1976.918 C208.91685,1977.93767 209.190933,1978.73692 209.7391,1979.31575 C210.287267,1979.89458 211.075017,1980.184 212.10235,1980.184 Z M221.79915,1980.1725 C222.21315,1980.1725 222.640567,1980.14183 223.0814,1980.0805 C223.522233,1980.01917 223.9554,1979.91375 224.3809,1979.76425 C224.8064,1979.61475 225.21465,1979.41542 225.60565,1979.16625 C225.99665,1978.91708 226.349317,1978.6085 226.66365,1978.2405 L226.66365,1978.2405 L225.84715,1977.2055 C225.73215,1977.02917 225.555817,1976.941 225.31815,1976.941 C225.141817,1976.941 224.959733,1976.99467 224.7719,1977.102 C224.584067,1977.20933 224.365567,1977.32817 224.1164,1977.4585 C223.867233,1977.58883 223.5759,1977.70767 223.2424,1977.815 C222.9089,1977.92233 222.51215,1977.976 222.05215,1977.976 C221.59215,1977.976 221.1724,1977.90508 220.7929,1977.76325 C220.4134,1977.62142 220.08565,1977.40675 219.80965,1977.11925 C219.53365,1976.83175 219.311317,1976.46758 219.14265,1976.02675 C218.973983,1975.58592 218.86665,1975.06267 218.82065,1974.457 L218.82065,1974.457 L226.12315,1974.457 C226.383817,1974.457 226.56015,1974.38225 226.65215,1974.23275 C226.74415,1974.08325 226.79015,1973.79383 226.79015,1973.3645 C226.79015,1972.5135 226.661733,1971.75642 226.4049,1971.09325 C226.148067,1970.43008 225.793483,1969.87042 225.34115,1969.41425 C224.888817,1968.95808 224.348317,1968.61117 223.71965,1968.3735 C223.090983,1968.13583 222.404817,1968.017 221.66115,1968.017 C220.779483,1968.017 219.9879,1968.17033 219.2864,1968.477 C218.5849,1968.78367 217.990733,1969.19958 217.5039,1969.72475 C217.017067,1970.24992 216.643317,1970.86708 216.38265,1971.57625 C216.121983,1972.28542 215.99165,1973.0425 215.99165,1973.8475 C215.99165,1974.8825 216.14115,1975.79292 216.44015,1976.57875 C216.73915,1977.36458 217.149317,1978.02392 217.67065,1978.55675 C218.191983,1979.08958 218.805317,1979.49208 219.51065,1979.76425 C220.215983,1980.03642 220.978817,1980.1725 221.79915,1980.1725 Z M224.23715,1972.7435 L218.87815,1972.7435 C219.008483,1971.88483 219.3094,1971.22167 219.7809,1970.754 C220.2524,1970.28633 220.898317,1970.0525 221.71865,1970.0525 C222.140317,1970.0525 222.510233,1970.12342 222.8284,1970.26525 C223.146567,1970.40708 223.40915,1970.60067 223.61615,1970.846 C223.82315,1971.09133 223.9784,1971.37692 224.0819,1971.70275 C224.1854,1972.02858 224.23715,1972.3755 224.23715,1972.7435 L224.23715,1972.7435 Z M241.16975,1980 L241.16975,1973.56 L247.23025,1963.371 L244.49325,1963.371 C244.232583,1963.371 244.017917,1963.44383 243.84925,1963.5895 C243.680583,1963.73517 243.554083,1963.89233 243.46975,1964.061 L243.46975,1964.061 L240.44525,1969.6155 C240.276583,1969.94517 240.127083,1970.25567 239.99675,1970.547 C239.866417,1970.83833 239.751417,1971.12967 239.65175,1971.421 C239.544417,1971.12967 239.423667,1970.83833 239.2895,1970.547 C239.155333,1970.25567 239.000083,1969.94517 238.82375,1969.6155 L238.82375,1969.6155 L235.78775,1964.061 C235.680417,1963.86167 235.548167,1963.69683 235.391,1963.5665 C235.233833,1963.43617 235.021083,1963.371 234.75275,1963.371 L234.75275,1963.371 L232.02725,1963.371 L238.08775,1973.56 L238.08775,1980 L241.16975,1980 Z M251.10805,1980.1725 C251.98205,1980.1725 252.777467,1980.03067 253.4943,1979.747 C254.211133,1979.46333 254.824467,1979.057 255.3343,1978.528 C255.844133,1977.999 256.23705,1977.35883 256.51305,1976.6075 C256.78905,1975.85617 256.92705,1975.01283 256.92705,1974.0775 C256.92705,1973.14983 256.78905,1972.31033 256.51305,1971.559 C256.23705,1970.80767 255.844133,1970.17133 255.3343,1969.65 C254.824467,1969.12867 254.211133,1968.72617 253.4943,1968.4425 C252.777467,1968.15883 251.98205,1968.017 251.10805,1968.017 C250.226383,1968.017 249.425217,1968.15883 248.70455,1968.4425 C247.983883,1968.72617 247.368633,1969.12867 246.8588,1969.65 C246.348967,1970.17133 245.954133,1970.80767 245.6743,1971.559 C245.394467,1972.31033 245.25455,1973.14983 245.25455,1974.0775 C245.25455,1975.01283 245.394467,1975.85617 245.6743,1976.6075 C245.954133,1977.35883 246.348967,1977.999 246.8588,1978.528 C247.368633,1979.057 247.983883,1979.46333 248.70455,1979.747 C249.425217,1980.03067 250.226383,1980.1725 251.10805,1980.1725 Z M251.10805,1977.9875 C250.111383,1977.9875 249.373467,1977.65592 248.8943,1976.99275 C248.415133,1976.32958 248.17555,1975.3655 248.17555,1974.1005 C248.17555,1972.8355 248.415133,1971.86758 248.8943,1971.19675 C249.373467,1970.52592 250.111383,1970.1905 251.10805,1970.1905 C252.089383,1970.1905 252.8158,1970.524 253.2873,1971.191 C253.7588,1971.858 253.99455,1972.82783 253.99455,1974.1005 C253.99455,1975.37317 253.7588,1976.33917 253.2873,1976.9985 C252.8158,1977.65783 252.089383,1977.9875 251.10805,1977.9875 Z M262.96685,1980.184 C263.756517,1980.184 264.442683,1980.03258 265.02535,1979.72975 C265.608017,1979.42692 266.14085,1979.03017 266.62385,1978.5395 L266.62385,1978.5395 L266.81935,1979.4825 C266.919017,1979.8275 267.156683,1980 267.53235,1980 L267.53235,1980 L269.26885,1980 L269.26885,1968.201 L266.42835,1968.201 L266.42835,1976.734 C266.045017,1977.11733 265.638683,1977.41825 265.20935,1977.63675 C264.780017,1977.85525 264.320017,1977.9645 263.82935,1977.9645 C263.16235,1977.9645 262.6621,1977.76708 262.3286,1977.37225 C261.9951,1976.97742 261.82835,1976.41967 261.82835,1975.699 L261.82835,1975.699 L261.82835,1968.201 L258.98785,1968.201 L258.98785,1975.699 C258.98785,1976.35833 259.0741,1976.96208 259.2466,1977.51025 C259.4191,1978.05842 259.674017,1978.53183 260.01135,1978.9305 C260.348683,1979.32917 260.7646,1979.63775 261.2591,1979.85625 C261.7536,1980.07475 262.32285,1980.184 262.96685,1980.184 Z M274.91765,1980 L274.91765,1972.732 C275.047983,1972.41767 275.1879,1972.13783 275.3374,1971.8925 C275.4869,1971.64717 275.6594,1971.43825 275.8549,1971.26575 C276.0504,1971.09325 276.270817,1970.961 276.51615,1970.869 C276.761483,1970.777 277.041317,1970.731 277.35565,1970.731 C277.570317,1970.731 277.790733,1970.75017 278.0169,1970.7885 C278.243067,1970.82683 278.41365,1970.846 278.52865,1970.846 C278.651317,1970.846 278.749067,1970.81725 278.8219,1970.75975 C278.894733,1970.70225 278.950317,1970.6045 278.98865,1970.4665 L278.98865,1970.4665 L279.17265,1968.339 C278.842983,1968.10133 278.405983,1967.9825 277.86165,1967.9825 C277.17165,1967.9825 276.57365,1968.18375 276.06765,1968.58625 C275.56165,1968.98875 275.12465,1969.54267 274.75665,1970.248 L274.75665,1970.248 L274.58415,1968.914 C274.545817,1968.64567 274.46915,1968.45975 274.35415,1968.35625 C274.23915,1968.25275 274.035983,1968.201 273.74465,1968.201 L273.74465,1968.201 L272.07715,1968.201 L272.07715,1980 L274.91765,1980 Z M292.11475,1980 L292.11475,1965.9125 L297.12875,1965.9125 L297.12875,1963.371 L284.00725,1963.371 L284.00725,1965.9125 L289.02125,1965.9125 L289.02125,1980 L292.11475,1980 Z M300.25905,1966.545 C300.51205,1966.545 300.749717,1966.49708 300.97205,1966.40125 C301.194383,1966.30542 301.387967,1966.177 301.5528,1966.016 C301.717633,1965.855 301.849883,1965.66717 301.94955,1965.4525 C302.049217,1965.23783 302.09905,1965.00783 302.09905,1964.7625 C302.09905,1964.5095 302.049217,1964.27183 301.94955,1964.0495 C301.849883,1963.82717 301.717633,1963.6355 301.5528,1963.4745 C301.387967,1963.3135 301.194383,1963.18508 300.97205,1963.08925 C300.749717,1962.99342 300.51205,1962.9455 300.25905,1962.9455 C300.013717,1962.9455 299.7818,1962.99342 299.5633,1963.08925 C299.3448,1963.18508 299.15505,1963.3135 298.99405,1963.4745 C298.83305,1963.6355 298.704633,1963.82717 298.6088,1964.0495 C298.512967,1964.27183 298.46505,1964.5095 298.46505,1964.7625 C298.46505,1965.00783 298.512967,1965.23783 298.6088,1965.4525 C298.704633,1965.66717 298.83305,1965.855 298.99405,1966.016 C299.15505,1966.177 299.3448,1966.30542 299.5633,1966.40125 C299.7818,1966.49708 300.013717,1966.545 300.25905,1966.545 Z M301.70805,1980 L301.70805,1968.201 L298.85605,1968.201 L298.85605,1980 L301.70805,1980 Z M307.44885,1980 L307.44885,1971.3635 C307.755517,1971.01083 308.0871,1970.73292 308.4436,1970.52975 C308.8001,1970.32658 309.18535,1970.225 309.59935,1970.225 C310.212683,1970.225 310.678433,1970.40517 310.9966,1970.7655 C311.314767,1971.12583 311.47385,1971.70083 311.47385,1972.4905 L311.47385,1972.4905 L311.47385,1980 L314.32585,1980 L314.32585,1972.4905 C314.32585,1972.1225 314.379517,1971.79667 314.48685,1971.513 C314.594183,1971.22933 314.741767,1970.99358 314.9296,1970.80575 C315.117433,1970.61792 315.335933,1970.47417 315.5851,1970.3745 C315.834267,1970.27483 316.104517,1970.225 316.39585,1970.225 C317.032183,1970.225 317.515183,1970.41475 317.84485,1970.79425 C318.174517,1971.17375 318.33935,1971.73917 318.33935,1972.4905 L318.33935,1972.4905 L318.33935,1980 L321.17985,1980 L321.17985,1972.4905 C321.17985,1971.7775 321.089767,1971.145 320.9096,1970.593 C320.729433,1970.041 320.46685,1969.57333 320.12185,1969.19 C319.77685,1968.80667 319.35135,1968.51533 318.84535,1968.316 C318.33935,1968.11667 317.760517,1968.017 317.10885,1968.017 C316.733183,1968.017 316.359433,1968.05917 315.9876,1968.1435 C315.615767,1968.22783 315.265017,1968.35817 314.93535,1968.5345 C314.605683,1968.71083 314.30285,1968.93892 314.02685,1969.21875 C313.75085,1969.49858 313.52085,1969.834 313.33685,1970.225 C313.099183,1969.558 312.740767,1969.02325 312.2616,1968.62075 C311.782433,1968.21825 311.171017,1968.017 310.42735,1968.017 C310.074683,1968.017 309.750767,1968.05725 309.4556,1968.13775 C309.160433,1968.21825 308.884433,1968.3275 308.6276,1968.4655 C308.370767,1968.6035 308.129267,1968.76833 307.9031,1968.96 C307.676933,1969.15167 307.46035,1969.3625 307.25335,1969.5925 L307.25335,1969.5925 L307.06935,1968.7185 C306.95435,1968.3735 306.71285,1968.201 306.34485,1968.201 L306.34485,1968.201 L304.60835,1968.201 L304.60835,1980 L307.44885,1980 Z M329.03665,1980.1725 C329.45065,1980.1725 329.878067,1980.14183 330.3189,1980.0805 C330.759733,1980.01917 331.1929,1979.91375 331.6184,1979.76425 C332.0439,1979.61475 332.45215,1979.41542 332.84315,1979.16625 C333.23415,1978.91708 333.586817,1978.6085 333.90115,1978.2405 L333.90115,1978.2405 L333.08465,1977.2055 C332.96965,1977.02917 332.793317,1976.941 332.55565,1976.941 C332.379317,1976.941 332.197233,1976.99467 332.0094,1977.102 C331.821567,1977.20933 331.603067,1977.32817 331.3539,1977.4585 C331.104733,1977.58883 330.8134,1977.70767 330.4799,1977.815 C330.1464,1977.92233 329.74965,1977.976 329.28965,1977.976 C328.82965,1977.976 328.4099,1977.90508 328.0304,1977.76325 C327.6509,1977.62142 327.32315,1977.40675 327.04715,1977.11925 C326.77115,1976.83175 326.548817,1976.46758 326.38015,1976.02675 C326.211483,1975.58592 326.10415,1975.06267 326.05815,1974.457 L326.05815,1974.457 L333.36065,1974.457 C333.621317,1974.457 333.79765,1974.38225 333.88965,1974.23275 C333.98165,1974.08325 334.02765,1973.79383 334.02765,1973.3645 C334.02765,1972.5135 333.899233,1971.75642 333.6424,1971.09325 C333.385567,1970.43008 333.030983,1969.87042 332.57865,1969.41425 C332.126317,1968.95808 331.585817,1968.61117 330.95715,1968.3735 C330.328483,1968.13583 329.642317,1968.017 328.89865,1968.017 C328.016983,1968.017 327.2254,1968.17033 326.5239,1968.477 C325.8224,1968.78367 325.228233,1969.19958 324.7414,1969.72475 C324.254567,1970.24992 323.880817,1970.86708 323.62015,1971.57625 C323.359483,1972.28542 323.22915,1973.0425 323.22915,1973.8475 C323.22915,1974.8825 323.37865,1975.79292 323.67765,1976.57875 C323.97665,1977.36458 324.386817,1978.02392 324.90815,1978.55675 C325.429483,1979.08958 326.042817,1979.49208 326.74815,1979.76425 C327.453483,1980.03642 328.216317,1980.1725 329.03665,1980.1725 Z M331.47465,1972.7435 L326.11565,1972.7435 C326.245983,1971.88483 326.5469,1971.22167 327.0184,1970.754 C327.4899,1970.28633 328.135817,1970.0525 328.95615,1970.0525 C329.377817,1970.0525 329.747733,1970.12342 330.0659,1970.26525 C330.384067,1970.40708 330.64665,1970.60067 330.85365,1970.846 C331.06065,1971.09133 331.2159,1971.37692 331.3194,1971.70275 C331.4229,1972.02858 331.47465,1972.3755 331.47465,1972.7435 L331.47465,1972.7435 Z M342.02245,1974.2385 L342.02245,1971.8695 L336.06545,1971.8695 L336.06545,1974.2385 L342.02245,1974.2385 Z M348.67175,1980.184 C349.24675,1980.184 349.802583,1980.09583 350.33925,1979.9195 C350.875917,1979.74317 351.35125,1979.4825 351.76525,1979.1375 L351.76525,1979.1375 L350.91425,1977.7575 C350.852917,1977.67317 350.795417,1977.60992 350.74175,1977.56775 C350.688083,1977.52558 350.619083,1977.5045 350.53475,1977.5045 C350.46575,1977.5045 350.39675,1977.52558 350.32775,1977.56775 C350.25875,1977.60992 350.180167,1977.654 350.092,1977.7 C350.003833,1977.746 349.900333,1977.79008 349.7815,1977.83225 C349.662667,1977.87442 349.515083,1977.8955 349.33875,1977.8955 C349.024417,1977.8955 348.777167,1977.792 348.597,1977.585 C348.416833,1977.378 348.32675,1977.0905 348.32675,1976.7225 L348.32675,1976.7225 L348.32675,1970.3285 L351.47775,1970.3285 L351.47775,1968.3045 L348.32675,1968.3045 L348.32675,1964.59 L346.85475,1964.59 C346.686083,1964.59 346.548083,1964.63217 346.44075,1964.7165 C346.333417,1964.80083 346.260583,1964.91967 346.22225,1965.073 L346.22225,1965.073 L345.62425,1968.293 L343.72675,1968.6035 L343.72675,1969.7305 C343.72675,1969.92983 343.780417,1970.07933 343.88775,1970.179 C343.995083,1970.27867 344.125417,1970.3285 344.27875,1970.3285 L344.27875,1970.3285 L345.48625,1970.3285 L345.48625,1976.918 C345.48625,1977.93767 345.760333,1978.73692 346.3085,1979.31575 C346.856667,1979.89458 347.644417,1980.184 348.67175,1980.184 Z M358.42605,1980.1725 C359.30005,1980.1725 360.095467,1980.03067 360.8123,1979.747 C361.529133,1979.46333 362.142467,1979.057 362.6523,1978.528 C363.162133,1977.999 363.55505,1977.35883 363.83105,1976.6075 C364.10705,1975.85617 364.24505,1975.01283 364.24505,1974.0775 C364.24505,1973.14983 364.10705,1972.31033 363.83105,1971.559 C363.55505,1970.80767 363.162133,1970.17133 362.6523,1969.65 C362.142467,1969.12867 361.529133,1968.72617 360.8123,1968.4425 C360.095467,1968.15883 359.30005,1968.017 358.42605,1968.017 C357.544383,1968.017 356.743217,1968.15883 356.02255,1968.4425 C355.301883,1968.72617 354.686633,1969.12867 354.1768,1969.65 C353.666967,1970.17133 353.272133,1970.80767 352.9923,1971.559 C352.712467,1972.31033 352.57255,1973.14983 352.57255,1974.0775 C352.57255,1975.01283 352.712467,1975.85617 352.9923,1976.6075 C353.272133,1977.35883 353.666967,1977.999 354.1768,1978.528 C354.686633,1979.057 355.301883,1979.46333 356.02255,1979.747 C356.743217,1980.03067 357.544383,1980.1725 358.42605,1980.1725 Z M358.42605,1977.9875 C357.429383,1977.9875 356.691467,1977.65592 356.2123,1976.99275 C355.733133,1976.32958 355.49355,1975.3655 355.49355,1974.1005 C355.49355,1972.8355 355.733133,1971.86758 356.2123,1971.19675 C356.691467,1970.52592 357.429383,1970.1905 358.42605,1970.1905 C359.407383,1970.1905 360.1338,1970.524 360.6053,1971.191 C361.0768,1971.858 361.31255,1972.82783 361.31255,1974.1005 C361.31255,1975.37317 361.0768,1976.33917 360.6053,1976.9985 C360.1338,1977.65783 359.407383,1977.9875 358.42605,1977.9875 Z M372.28585,1974.2385 L372.28585,1971.8695 L366.32885,1971.8695 L366.32885,1974.2385 L372.28585,1974.2385 Z M378.17615,1980 L378.17615,1969.259 C378.17615,1969.052 378.168483,1968.82583 378.15315,1968.5805 C378.137817,1968.33517 378.11865,1968.086 378.09565,1967.833 L378.09565,1967.833 L383.17865,1977.309 C383.416317,1977.76133 383.780483,1977.9875 384.27115,1977.9875 L384.27115,1977.9875 L384.70815,1977.9875 C385.198817,1977.9875 385.562983,1977.76133 385.80065,1977.309 L385.80065,1977.309 L390.82615,1967.8675 C390.78015,1968.36583 390.75715,1968.82967 390.75715,1969.259 L390.75715,1969.259 L390.75715,1980 L393.48265,1980 L393.48265,1963.371 L391.14815,1963.371 C391.01015,1963.371 390.891317,1963.37483 390.79165,1963.3825 C390.691983,1963.39017 390.6019,1963.40933 390.5214,1963.44 C390.4409,1963.47067 390.36615,1963.5205 390.29715,1963.5895 C390.22815,1963.6585 390.162983,1963.7505 390.10165,1963.8655 L390.10165,1963.8655 L385.19115,1973.077 C385.060817,1973.32233 384.93815,1973.57725 384.82315,1973.84175 C384.70815,1974.10625 384.596983,1974.38033 384.48965,1974.664 C384.382317,1974.388 384.273067,1974.11967 384.1619,1973.859 C384.050733,1973.59833 383.929983,1973.34533 383.79965,1973.1 L383.79965,1973.1 L378.82015,1963.8655 C378.758817,1963.7505 378.695567,1963.6585 378.6304,1963.5895 C378.565233,1963.5205 378.4924,1963.47067 378.4119,1963.44 C378.3314,1963.40933 378.241317,1963.39017 378.14165,1963.3825 C378.041983,1963.37483 377.92315,1963.371 377.78515,1963.371 L377.78515,1963.371 L375.45065,1963.371 L375.45065,1980 L378.17615,1980 Z M399.03945,1980.184 C399.461117,1980.184 399.846367,1980.14758 400.1952,1980.07475 C400.544033,1980.00192 400.871783,1979.8965 401.17845,1979.7585 C401.485117,1979.6205 401.780283,1979.44992 402.06395,1979.24675 C402.347617,1979.04358 402.63895,1978.80783 402.93795,1978.5395 L402.93795,1978.5395 L403.19095,1979.3905 C403.275283,1979.63583 403.390283,1979.79875 403.53595,1979.87925 C403.681617,1979.95975 403.888617,1980 404.15695,1980 L404.15695,1980 L405.44495,1980 L405.44495,1972.548 C405.44495,1971.881 405.3472,1971.26767 405.1517,1970.708 C404.9562,1970.14833 404.670617,1969.66725 404.29495,1969.26475 C403.919283,1968.86225 403.459283,1968.54792 402.91495,1968.32175 C402.370617,1968.09558 401.75345,1967.9825 401.06345,1967.9825 C399.15445,1967.9825 397.52145,1968.6035 396.16445,1969.8455 L396.16445,1969.8455 L396.67045,1970.754 C396.754783,1970.892 396.86595,1971.01275 397.00395,1971.11625 C397.14195,1971.21975 397.310617,1971.2715 397.50995,1971.2715 C397.73995,1971.2715 397.948867,1971.21783 398.1367,1971.1105 C398.324533,1971.00317 398.53345,1970.88242 398.76345,1970.74825 C398.99345,1970.61408 399.259867,1970.49333 399.5627,1970.386 C399.865533,1970.27867 400.24695,1970.225 400.70695,1970.225 C401.343283,1970.225 401.830117,1970.41475 402.16745,1970.79425 C402.504783,1971.17375 402.67345,1971.75833 402.67345,1972.548 L402.67345,1972.548 L402.67345,1973.238 C401.77645,1973.261 400.979117,1973.32808 400.28145,1973.43925 C399.583783,1973.55042 398.972367,1973.69417 398.4472,1973.8705 C397.922033,1974.04683 397.479283,1974.25383 397.11895,1974.4915 C396.758617,1974.72917 396.465367,1974.98217 396.2392,1975.2505 C396.013033,1975.51883 395.850117,1975.80058 395.75045,1976.09575 C395.650783,1976.39092 395.60095,1976.688 395.60095,1976.987 C395.60095,1977.516 395.685283,1977.97983 395.85395,1978.3785 C396.022617,1978.77717 396.260283,1979.11067 396.56695,1979.379 C396.873617,1979.64733 397.237783,1979.84858 397.65945,1979.98275 C398.081117,1980.11692 398.541117,1980.184 399.03945,1980.184 Z M399.91345,1978.229 C399.438117,1978.229 399.052867,1978.12167 398.7577,1977.907 C398.462533,1977.69233 398.31495,1977.33583 398.31495,1976.8375 C398.31495,1976.5845 398.387783,1976.35067 398.53345,1976.136 C398.679117,1975.92133 398.920617,1975.7335 399.25795,1975.5725 C399.595283,1975.4115 400.043783,1975.27925 400.60345,1975.17575 C401.163117,1975.07225 401.853117,1975.00133 402.67345,1974.963 L402.67345,1974.963 L402.67345,1976.9525 C402.267117,1977.38183 401.8512,1977.70192 401.4257,1977.91275 C401.0002,1978.12358 400.496117,1978.229 399.91345,1978.229 Z M410.95575,1980 L410.95575,1972.732 C411.086083,1972.41767 411.226,1972.13783 411.3755,1971.8925 C411.525,1971.64717 411.6975,1971.43825 411.893,1971.26575 C412.0885,1971.09325 412.308917,1970.961 412.55425,1970.869 C412.799583,1970.777 413.079417,1970.731 413.39375,1970.731 C413.608417,1970.731 413.828833,1970.75017 414.055,1970.7885 C414.281167,1970.82683 414.45175,1970.846 414.56675,1970.846 C414.689417,1970.846 414.787167,1970.81725 414.86,1970.75975 C414.932833,1970.70225 414.988417,1970.6045 415.02675,1970.4665 L415.02675,1970.4665 L415.21075,1968.339 C414.881083,1968.10133 414.444083,1967.9825 413.89975,1967.9825 C413.20975,1967.9825 412.61175,1968.18375 412.10575,1968.58625 C411.59975,1968.98875 411.16275,1969.54267 410.79475,1970.248 L410.79475,1970.248 L410.62225,1968.914 C410.583917,1968.64567 410.50725,1968.45975 410.39225,1968.35625 C410.27725,1968.25275 410.074083,1968.201 409.78275,1968.201 L409.78275,1968.201 L408.11525,1968.201 L408.11525,1980 L410.95575,1980 Z M419.53705,1980 L419.53705,1974.595 L420.18105,1974.595 C420.41105,1974.595 420.58355,1974.62183 420.69855,1974.6755 C420.81355,1974.72917 420.924717,1974.84417 421.03205,1975.0205 L421.03205,1975.0205 L424.04505,1979.494 C424.152383,1979.68567 424.28655,1979.81792 424.44755,1979.89075 C424.60855,1979.96358 424.800217,1980 425.02255,1980 L425.02255,1980 L427.58705,1980 L423.65405,1974.273 C423.53905,1974.09667 423.4183,1973.93183 423.2918,1973.7785 C423.1653,1973.62517 423.02155,1973.491 422.86055,1973.376 C423.167217,1973.192 423.450883,1972.9275 423.71155,1972.5825 L423.71155,1972.5825 L427.38005,1968.201 L424.78105,1968.201 C424.543383,1968.201 424.3498,1968.24317 424.2003,1968.3275 C424.0508,1968.41183 423.914717,1968.5345 423.79205,1968.6955 L423.79205,1968.6955 L420.85955,1972.318 C420.74455,1972.47133 420.631467,1972.57292 420.5203,1972.62275 C420.409133,1972.67258 420.257717,1972.6975 420.06605,1972.6975 L420.06605,1972.6975 L419.53705,1972.6975 L419.53705,1962.911 L416.69655,1962.911 L416.69655,1980 L419.53705,1980 Z M433.55785,1980.1725 C433.97185,1980.1725 434.399267,1980.14183 434.8401,1980.0805 C435.280933,1980.01917 435.7141,1979.91375 436.1396,1979.76425 C436.5651,1979.61475 436.97335,1979.41542 437.36435,1979.16625 C437.75535,1978.91708 438.108017,1978.6085 438.42235,1978.2405 L438.42235,1978.2405 L437.60585,1977.2055 C437.49085,1977.02917 437.314517,1976.941 437.07685,1976.941 C436.900517,1976.941 436.718433,1976.99467 436.5306,1977.102 C436.342767,1977.20933 436.124267,1977.32817 435.8751,1977.4585 C435.625933,1977.58883 435.3346,1977.70767 435.0011,1977.815 C434.6676,1977.92233 434.27085,1977.976 433.81085,1977.976 C433.35085,1977.976 432.9311,1977.90508 432.5516,1977.76325 C432.1721,1977.62142 431.84435,1977.40675 431.56835,1977.11925 C431.29235,1976.83175 431.070017,1976.46758 430.90135,1976.02675 C430.732683,1975.58592 430.62535,1975.06267 430.57935,1974.457 L430.57935,1974.457 L437.88185,1974.457 C438.142517,1974.457 438.31885,1974.38225 438.41085,1974.23275 C438.50285,1974.08325 438.54885,1973.79383 438.54885,1973.3645 C438.54885,1972.5135 438.420433,1971.75642 438.1636,1971.09325 C437.906767,1970.43008 437.552183,1969.87042 437.09985,1969.41425 C436.647517,1968.95808 436.107017,1968.61117 435.47835,1968.3735 C434.849683,1968.13583 434.163517,1968.017 433.41985,1968.017 C432.538183,1968.017 431.7466,1968.17033 431.0451,1968.477 C430.3436,1968.78367 429.749433,1969.19958 429.2626,1969.72475 C428.775767,1970.24992 428.402017,1970.86708 428.14135,1971.57625 C427.880683,1972.28542 427.75035,1973.0425 427.75035,1973.8475 C427.75035,1974.8825 427.89985,1975.79292 428.19885,1976.57875 C428.49785,1977.36458 428.908017,1978.02392 429.42935,1978.55675 C429.950683,1979.08958 430.564017,1979.49208 431.26935,1979.76425 C431.974683,1980.03642 432.737517,1980.1725 433.55785,1980.1725 Z M435.99585,1972.7435 L430.63685,1972.7435 C430.767183,1971.88483 431.0681,1971.22167 431.5396,1970.754 C432.0111,1970.28633 432.657017,1970.0525 433.47735,1970.0525 C433.899017,1970.0525 434.268933,1970.12342 434.5871,1970.26525 C434.905267,1970.40708 435.16785,1970.60067 435.37485,1970.846 C435.58185,1971.09133 435.7371,1971.37692 435.8406,1971.70275 C435.9441,1972.02858 435.99585,1972.3755 435.99585,1972.7435 L435.99585,1972.7435 Z M444.49665,1980.184 C445.07165,1980.184 445.627483,1980.09583 446.16415,1979.9195 C446.700817,1979.74317 447.17615,1979.4825 447.59015,1979.1375 L447.59015,1979.1375 L446.73915,1977.7575 C446.677817,1977.67317 446.620317,1977.60992 446.56665,1977.56775 C446.512983,1977.52558 446.443983,1977.5045 446.35965,1977.5045 C446.29065,1977.5045 446.22165,1977.52558 446.15265,1977.56775 C446.08365,1977.60992 446.005067,1977.654 445.9169,1977.7 C445.828733,1977.746 445.725233,1977.79008 445.6064,1977.83225 C445.487567,1977.87442 445.339983,1977.8955 445.16365,1977.8955 C444.849317,1977.8955 444.602067,1977.792 444.4219,1977.585 C444.241733,1977.378 444.15165,1977.0905 444.15165,1976.7225 L444.15165,1976.7225 L444.15165,1970.3285 L447.30265,1970.3285 L447.30265,1968.3045 L444.15165,1968.3045 L444.15165,1964.59 L442.67965,1964.59 C442.510983,1964.59 442.372983,1964.63217 442.26565,1964.7165 C442.158317,1964.80083 442.085483,1964.91967 442.04715,1965.073 L442.04715,1965.073 L441.44915,1968.293 L439.55165,1968.6035 L439.55165,1969.7305 C439.55165,1969.92983 439.605317,1970.07933 439.71265,1970.179 C439.819983,1970.27867 439.950317,1970.3285 440.10365,1970.3285 L440.10365,1970.3285 L441.31115,1970.3285 L441.31115,1976.918 C441.31115,1977.93767 441.585233,1978.73692 442.1334,1979.31575 C442.681567,1979.89458 443.469317,1980.184 444.49665,1980.184 Z" id="path-2"></path>
    </defs>
    <g id="Page-1" stroke="none" stroke-width="1" fill="none" fill-rule="evenodd">
        <g id="Artboard" transform="translate(-50.000000, -1934.000000)" fill-rule="nonzero">
            <g id="SolveIndustryChallenges|BeMoreProductiveExpediteYourTime-to-Market">
                <use fill="#ED9A98" xlink:href="#path-2"></use>
                <use fill="url(#linearGradient-1)" xlink:href="#path-2"></use>
            </g>
        </g>
    </g>
</svg>